<svg width="602" height="551" viewBox="0 0 602 551" fill="none" xmlns="http://www.w3.org/2000/svg">
<path d="M378.302 15.918L420.208 56.3535L462.326 284.295H67.2539L378.302 15.918Z" fill="#FFCF2D"/>
<path d="M420.569 56.036L378.535 15.4735L385.565 8.16972C395.92 -2.58485 414.576 -1.35696 425.333 8.9742C436.09 19.3265 437.975 37.9776 427.62 48.7322L420.569 56.036Z" fill="white"/>
<path d="M420.59 56.925L377.646 15.4945L385.12 7.72497C390.16 2.47471 397.339 -0.256271 405.343 0.0189438C413.009 0.294159 420.462 3.38504 425.799 8.50828C431.135 13.6315 434.502 20.9776 435.052 28.6413C435.624 36.6226 433.147 43.9052 428.107 49.1555L420.59 56.925ZM379.424 15.4522L420.547 55.1255L427.154 48.2875C431.961 43.3124 434.29 36.3685 433.761 28.7472C433.231 21.3799 430.013 14.3513 424.888 9.43977C419.764 4.52824 412.628 1.56438 405.28 1.31034C397.656 1.03512 390.817 3.63908 386.031 8.61413L379.424 15.4522Z" fill="#FFCF2D"/>
<path d="M427.599 49.367C427.43 49.367 427.281 49.3035 427.154 49.1977L385.1 8.63516C384.845 8.38112 384.845 8.00005 385.078 7.746C385.332 7.49196 385.735 7.49196 385.968 7.72483L428.022 48.2873C428.277 48.5414 428.277 48.9224 428.044 49.1765C427.938 49.3035 427.768 49.367 427.599 49.367Z" fill="#FFCF2D"/>
<path d="M508.828 283.194C508.743 283.194 508.658 283.173 508.574 283.131C508.256 282.983 508.108 282.602 508.256 282.284L567.23 150.773L451.929 10.456V10.4348C449.748 7.47095 446.55 5.56561 442.908 5.03635C439.266 4.50709 435.645 5.45976 432.723 7.70382L428.022 11.3028C427.746 11.5145 427.344 11.4722 427.132 11.1758C426.921 10.9006 426.963 10.4983 427.259 10.2866L431.96 6.68764C435.158 4.25304 439.118 3.2157 443.099 3.7873C447.08 4.3589 450.574 6.4336 452.945 9.67267L568.712 150.583L568.543 150.943L509.399 282.813C509.294 283.046 509.061 283.194 508.828 283.194Z" fill="#3FB1B5"/>
<path d="M566.086 157.866C569.665 157.866 572.566 154.965 572.566 151.388C572.566 147.81 569.665 144.909 566.086 144.909C562.508 144.909 559.606 147.81 559.606 151.388C559.606 154.965 562.508 157.866 566.086 157.866Z" fill="white"/>
<path d="M566.087 158.501C562.169 158.501 558.972 155.304 558.972 151.388C558.972 147.471 562.169 144.274 566.087 144.274C570.004 144.274 573.202 147.471 573.202 151.388C573.202 155.304 570.004 158.501 566.087 158.501ZM566.087 145.545C562.868 145.545 560.242 148.17 560.242 151.388C560.242 154.606 562.868 157.231 566.087 157.231C569.305 157.231 571.931 154.606 571.931 151.388C571.931 148.17 569.305 145.545 566.087 145.545Z" fill="#FFCF2D"/>
<path d="M492.396 267.824H523.969C533.053 267.824 540.401 275.192 540.401 284.253V284.718H475.942V284.253C475.964 275.192 483.311 267.824 492.396 267.824Z" fill="white"/>
<path d="M541.037 285.354H475.308V284.253C475.329 274.853 482.994 267.189 492.396 267.189H523.969C533.371 267.189 541.037 274.853 541.037 284.253V285.354ZM476.578 284.083H539.766C539.681 275.446 532.63 268.46 523.969 268.46H492.396C483.757 268.46 476.684 275.446 476.578 284.083Z" fill="#FFCF2D"/>
<path d="M339.444 236.641H139.568C132.051 236.641 125.974 230.565 125.974 223.049V83.2823C125.974 75.7668 132.051 69.6909 139.568 69.6909H339.444C346.962 69.6909 353.039 75.7668 353.039 83.2823V223.028C353.06 230.544 346.962 236.641 339.444 236.641Z" fill="white"/>
<path d="M339.445 237.276H139.569C131.713 237.276 125.339 230.903 125.339 223.049V83.2822C125.339 75.428 131.713 69.0557 139.569 69.0557H339.445C347.301 69.0557 353.675 75.428 353.675 83.2822V223.028C353.696 226.818 352.214 230.395 349.525 233.084C346.835 235.794 343.257 237.276 339.445 237.276ZM139.569 70.3259C132.433 70.3259 126.609 76.1478 126.609 83.2822V223.049C126.609 230.184 132.433 236.005 139.569 236.005H339.445C342.918 236.005 346.179 234.651 348.635 232.195C351.07 229.739 352.426 226.479 352.404 223.028V83.2822C352.404 76.1478 346.581 70.3259 339.445 70.3259H139.569Z" fill="#3FB1B5"/>
<path d="M339.572 223.642H141.623C138.679 223.642 136.308 221.25 136.308 218.328V84.616C136.308 81.6733 138.7 79.3022 141.623 79.3022H339.572C342.515 79.3022 344.887 81.6945 344.887 84.616V218.307C344.908 221.25 342.515 223.642 339.572 223.642Z" fill="#66B0F0"/>
<path d="M339.572 224.277H141.623C138.341 224.277 135.673 221.61 135.673 218.328V84.6159C135.673 81.3345 138.341 78.667 141.623 78.667H339.572C342.854 78.667 345.523 81.3345 345.523 84.6159V218.307C345.544 219.895 344.93 221.398 343.807 222.52C342.664 223.642 341.182 224.277 339.572 224.277ZM141.623 79.9372C139.04 79.9372 136.943 82.0331 136.943 84.6159V218.328C136.943 220.911 139.04 223.007 141.623 223.007H339.572C340.822 223.007 342.007 222.52 342.897 221.631C343.786 220.742 344.252 219.577 344.252 218.328V84.6159C344.252 82.0331 342.156 79.9372 339.572 79.9372H141.623Z" fill="#66B0F0"/>
<path d="M148.717 92.4278H145.583C144.206 92.4278 143.084 91.3057 143.084 89.9297V86.7964C143.084 85.4204 144.206 84.2983 145.583 84.2983H148.717C150.093 84.2983 151.215 85.4204 151.215 86.7964V89.9297C151.194 91.3269 150.093 92.4278 148.717 92.4278ZM145.583 85.5686C144.905 85.5686 144.355 86.119 144.355 86.7964V89.9297C144.355 90.6071 144.905 91.1576 145.583 91.1576H148.717C149.394 91.1576 149.924 90.6071 149.945 89.9085V86.7964C149.945 86.119 149.394 85.5686 148.717 85.5686H145.583Z" fill="white"/>
<path d="M162.968 92.4278H159.834C158.457 92.4278 157.335 91.3057 157.335 89.9297V86.7964C157.335 85.4204 158.457 84.2983 159.834 84.2983H162.968C164.344 84.2983 165.466 85.4204 165.466 86.7964V89.9297C165.466 91.3057 164.344 92.4278 162.968 92.4278ZM159.834 85.5686C159.156 85.5686 158.605 86.119 158.605 86.7964V89.9297C158.605 90.6071 159.156 91.1576 159.834 91.1576H162.968C163.645 91.1576 164.196 90.6071 164.196 89.9297V86.7964C164.196 86.119 163.645 85.5686 162.968 85.5686H159.834Z" fill="white"/>
<path d="M177.219 92.4278H174.085C172.708 92.4278 171.586 91.3057 171.586 89.9297V86.7964C171.586 85.4204 172.708 84.2983 174.085 84.2983H177.219C178.595 84.2983 179.717 85.4204 179.717 86.7964V89.9297C179.717 91.3057 178.595 92.4278 177.219 92.4278ZM174.085 85.5686C173.407 85.5686 172.856 86.119 172.856 86.7964V89.9297C172.856 90.6071 173.407 91.1576 174.085 91.1576H177.219C177.917 91.1576 178.447 90.6283 178.447 89.9297V86.7964C178.447 86.119 177.896 85.5686 177.219 85.5686H174.085Z" fill="white"/>
<path d="M281.699 284.295H204.111L219.337 236.641H266.452L281.699 284.295Z" fill="white"/>
<path d="M282.567 284.931H203.243L218.871 236.006H266.918L282.567 284.931ZM204.98 283.66H280.83L265.986 237.276H219.802L204.98 283.66Z" fill="#3FB1B5"/>
<path d="M210.21 265.221L219.337 236.641H266.452L210.21 265.221Z" fill="#3FB1B5"/>
<path d="M328.052 123.782H290.339C286.464 123.782 283.309 120.627 283.309 116.753V92.407C283.309 88.5328 286.464 85.3784 290.339 85.3784H328.052C331.928 85.3784 335.083 88.5328 335.083 92.407V116.753C335.083 120.627 331.928 123.782 328.052 123.782ZM290.339 86.6486C287.163 86.6486 284.579 89.2314 284.579 92.407V116.753C284.579 119.929 287.163 122.511 290.339 122.511H328.052C331.229 122.511 333.812 119.929 333.812 116.753V92.407C333.812 89.2314 331.229 86.6486 328.052 86.6486H290.339Z" fill="white"/>
<path d="M323.5 95.3286H294.722C294.362 95.3286 294.087 95.0534 294.087 94.6935C294.087 94.3336 294.362 94.0583 294.722 94.0583H323.5C323.86 94.0583 324.135 94.3336 324.135 94.6935C324.135 95.0534 323.86 95.3286 323.5 95.3286Z" fill="white"/>
<path d="M323.5 101.892H294.722C294.362 101.892 294.087 101.616 294.087 101.256C294.087 100.897 294.362 100.621 294.722 100.621H323.5C323.86 100.621 324.135 100.897 324.135 101.256C324.135 101.616 323.86 101.892 323.5 101.892Z" fill="white"/>
<path d="M323.5 108.454H294.722C294.362 108.454 294.087 108.179 294.087 107.819C294.087 107.459 294.362 107.184 294.722 107.184H323.5C323.86 107.184 324.135 107.459 324.135 107.819C324.135 108.179 323.86 108.454 323.5 108.454Z" fill="white"/>
<path d="M323.5 115.017H294.722C294.362 115.017 294.087 114.742 294.087 114.382C294.087 114.022 294.362 113.747 294.722 113.747H323.5C323.86 113.747 324.135 114.022 324.135 114.382C324.135 114.742 323.86 115.017 323.5 115.017Z" fill="white"/>
<path d="M338.471 223.642H188.57L179.782 236.238C169.85 250.465 148.865 250.676 138.659 236.64L85.127 163.031C87.3716 165.825 97.6417 162.713 107.425 156.277C117.356 149.736 123.772 141.5 121.761 138.452L158.881 185.747L170.253 165.677C173.366 160.363 178.532 156.553 184.546 155.155L223.234 146.962H256.585L293.346 155.071C299.741 156.531 305.162 160.702 308.233 166.482L338.471 223.642Z" fill="white"/>
<path d="M159.071 247.67C150.707 247.67 143.084 243.796 138.15 237.001L84.6182 163.391L85.6346 162.629C87.4345 164.852 96.9847 162.396 107.085 155.749C111.786 152.658 115.873 149.08 118.584 145.65C121.04 142.559 122.035 139.998 121.231 138.791L122.268 138.05L158.796 184.604L169.702 165.36C172.899 159.898 178.256 155.96 184.397 154.542L223.17 146.328H256.648L256.712 146.349L293.473 154.457C300.037 155.96 305.627 160.237 308.783 166.186L339.508 224.277H188.887L180.289 236.598C175.44 243.542 167.796 247.586 159.304 247.67C159.241 247.67 159.156 247.67 159.071 247.67ZM87.0745 164.619L139.188 236.26C143.931 242.78 151.258 246.485 159.325 246.4C167.393 246.316 174.657 242.484 179.273 235.879L188.251 223.007H337.433L307.681 166.778C304.696 161.147 299.423 157.103 293.218 155.685L256.521 147.598H223.297L184.673 155.77C178.871 157.125 173.81 160.851 170.803 165.995L158.966 186.89L122.671 140.654C122.374 142.242 121.337 144.232 119.558 146.455C116.763 149.969 112.57 153.653 107.763 156.807C101.05 161.21 92.9825 164.682 88.1756 164.682C87.7945 164.682 87.4133 164.661 87.0745 164.619Z" fill="#3FB1B5"/>
<path d="M297.327 223.409C297.094 223.409 296.882 223.282 296.755 223.071L286.104 202.048C285.956 201.731 286.062 201.35 286.379 201.202C286.697 201.053 287.078 201.159 287.226 201.477L297.878 222.499C298.026 222.817 297.92 223.198 297.602 223.346C297.518 223.388 297.433 223.409 297.327 223.409Z" fill="#3FB1B5"/>
<path d="M187.722 225.378C187.616 225.378 187.532 225.357 187.426 225.315C187.108 225.166 186.981 224.764 187.15 224.468L197.696 203.657C197.844 203.34 198.246 203.213 198.543 203.382C198.861 203.53 198.988 203.933 198.818 204.229L188.273 225.039C188.167 225.251 187.955 225.378 187.722 225.378Z" fill="#3FB1B5"/>
<path d="M168.6 198.915C168.41 198.915 168.219 198.83 168.092 198.661L143.931 167.774C143.719 167.498 143.761 167.096 144.037 166.884C144.312 166.673 144.714 166.715 144.926 166.99L169.087 197.878C169.299 198.153 169.257 198.555 168.981 198.767C168.876 198.873 168.727 198.915 168.6 198.915Z" fill="#3FB1B5"/>
<path d="M252.879 168.853L243.583 157.527C243.35 157.252 243.392 156.85 243.668 156.638C243.943 156.405 244.345 156.448 244.557 156.723L253.048 167.033L272.466 150.562C272.742 150.329 273.144 150.372 273.356 150.626C273.589 150.901 273.546 151.303 273.292 151.515L252.879 168.853Z" fill="#3FB1B5"/>
<path d="M228.739 169.256L206.356 151.536C206.081 151.324 206.038 150.922 206.25 150.647C206.462 150.372 206.864 150.329 207.139 150.541L228.506 167.456L236.743 156.934C236.955 156.659 237.357 156.617 237.632 156.828C237.908 157.04 237.95 157.442 237.738 157.718L228.739 169.256Z" fill="#3FB1B5"/>
<path d="M95.3119 174.463C93.3002 174.463 92.2414 173.849 91.712 173.172C91.5003 172.896 91.5426 172.494 91.8179 172.282C92.0932 172.071 92.4955 172.113 92.7073 172.388C93.5967 173.51 96.4977 173.447 100.458 172.261C104.671 170.991 109.754 168.493 114.37 165.423C119.092 162.29 123.2 158.67 125.932 155.198C128.409 152.065 129.405 149.482 128.6 148.254C128.409 147.958 128.494 147.577 128.79 147.365C129.087 147.174 129.468 147.259 129.68 147.555C130.823 149.313 129.849 152.298 126.948 155.981C124.132 159.538 119.918 163.264 115.09 166.461C110.304 169.636 105.243 172.134 100.839 173.468C98.4459 174.188 96.646 174.463 95.3119 174.463Z" fill="#3FB1B5"/>
<path d="M122.48 153.907C120.807 153.907 119.452 152.552 119.452 150.879C119.452 149.207 120.807 147.852 122.48 147.852C124.153 147.852 125.508 149.207 125.508 150.879C125.508 152.552 124.153 153.907 122.48 153.907ZM122.48 149.122C121.506 149.122 120.723 149.906 120.723 150.879C120.723 151.853 121.506 152.637 122.48 152.637C123.454 152.637 124.238 151.853 124.238 150.879C124.238 149.906 123.454 149.122 122.48 149.122Z" fill="#3FB1B5"/>
<path d="M240.639 168.938C238.967 168.938 237.611 167.583 237.611 165.91C237.611 164.238 238.967 162.883 240.639 162.883C242.312 162.883 243.667 164.238 243.667 165.91C243.667 167.583 242.312 168.938 240.639 168.938ZM240.639 164.153C239.665 164.153 238.882 164.937 238.882 165.91C238.882 166.884 239.665 167.668 240.639 167.668C241.614 167.668 242.397 166.884 242.397 165.91C242.397 164.937 241.614 164.153 240.639 164.153Z" fill="#3FB1B5"/>
<path d="M240.639 188.203C238.967 188.203 237.611 186.848 237.611 185.175C237.611 183.503 238.967 182.148 240.639 182.148C242.312 182.148 243.667 183.503 243.667 185.175C243.667 186.848 242.312 188.203 240.639 188.203ZM240.639 183.418C239.665 183.418 238.882 184.201 238.882 185.175C238.882 186.149 239.665 186.932 240.639 186.932C241.614 186.932 242.397 186.149 242.397 185.175C242.397 184.201 241.614 183.418 240.639 183.418Z" fill="#3FB1B5"/>
<path d="M179.019 237.255L188.569 223.642V237.255H179.019Z" fill="#3FB1B5"/>
<path d="M107.191 155.643C97.4075 162.078 87.1373 165.19 84.8927 162.396C84.8504 162.354 84.8292 162.311 84.7868 162.248C84.321 161.549 84.3633 160.596 84.7868 159.432C86.2479 155.6 92.283 149.673 99.9485 144.634C106.047 140.612 112.061 137.817 116.233 136.949C118.647 136.462 120.446 136.61 121.315 137.542L121.526 137.796C123.517 140.844 117.122 149.101 107.191 155.643Z" fill="#FE5244"/>
<path d="M107.191 155.643C101.622 159.305 95.883 161.909 91.5632 162.925L72.2299 135.658C69.5406 131.847 70.43 126.576 74.2628 123.887L91.6691 111.65L81.8013 94.8624C80.3613 92.4278 81.1872 89.2734 83.6435 87.8549C84.4482 87.3892 85.3164 87.1775 86.1846 87.1775C87.8575 87.1775 89.5092 88.0031 90.4832 89.5274L121.336 137.5L121.548 137.838C123.517 140.844 117.122 149.101 107.191 155.643Z" fill="#E57281"/>
<path d="M97.1327 135.975C96.8574 135.975 96.5821 135.954 96.3068 135.89C95.248 135.679 94.3375 135.044 93.7658 134.154L83.5803 118.912C83.3897 118.615 83.4744 118.234 83.7497 118.023C84.0462 117.832 84.4273 117.917 84.6391 118.192L94.8245 133.435C95.2269 134.049 95.841 134.472 96.5609 134.62C97.2809 134.768 98.022 134.62 98.6361 134.218L101.029 132.651C102.3 131.826 102.659 130.132 101.855 128.862L91.0765 112.158C90.8859 111.862 90.9706 111.481 91.267 111.29C91.5635 111.1 91.9447 111.185 92.1353 111.481L102.914 128.184C104.099 130.047 103.549 132.524 101.707 133.71L99.3137 135.277C98.6785 135.742 97.9162 135.975 97.1327 135.975Z" fill="#9A3B82"/>
<path d="M89.234 141.035C87.9211 141.035 86.6294 140.4 85.8459 139.235C85.6553 138.939 85.74 138.558 86.0365 138.346C86.3329 138.156 86.7141 138.24 86.9258 138.537C87.7517 139.786 89.4457 140.146 90.7163 139.341L92.8974 137.965C93.5115 137.563 93.9561 136.949 94.1044 136.208C94.2526 135.467 94.1256 134.726 93.7232 134.112C93.5326 133.816 93.6173 133.435 93.9138 133.223C94.2102 133.032 94.5914 133.117 94.8032 133.413C95.3961 134.324 95.6078 135.403 95.3749 136.483C95.142 137.542 94.5067 138.452 93.5961 139.045L91.4151 140.421C90.7375 140.823 89.9751 141.035 89.234 141.035Z" fill="#9A3B82"/>
<path d="M81.4844 145.777C80.2138 145.777 78.9645 145.184 78.181 144.062L72.4 135.912C72.1883 135.615 72.273 135.234 72.5483 135.022C72.8236 134.811 73.2259 134.895 73.4376 135.171L79.2186 143.321C80.0868 144.528 81.7173 144.846 82.9455 144.062L82.9878 144.041L84.9995 142.919C85.6348 142.517 86.0583 141.903 86.2277 141.183C86.3971 140.442 86.2489 139.701 85.8465 139.066L75.8728 124.247C75.6823 123.95 75.7458 123.569 76.0423 123.358C76.3387 123.167 76.7199 123.231 76.9316 123.527L86.9053 138.346C87.5194 139.278 87.71 140.379 87.4771 141.437C87.2441 142.496 86.6089 143.406 85.6771 143.978L85.6559 143.999L83.6443 145.121C82.9455 145.586 82.2043 145.777 81.4844 145.777Z" fill="#9A3B82"/>
<path d="M114.136 126.322L109.075 118.467C107.402 115.863 103.908 115.144 101.346 116.88L88.7891 125.39C88.7891 125.39 92.4313 131.932 101.283 126.745L104.247 131.466C98.191 135.298 96.4546 143.364 100.393 149.355L114.136 126.322Z" fill="#E57281"/>
<path d="M100.394 149.99C100.182 149.99 99.9913 149.884 99.8642 149.693C97.8737 146.645 97.1749 143.004 97.9584 139.447C98.6784 136.102 100.605 133.223 103.379 131.275L101.071 127.592C98.022 129.264 95.248 129.751 92.7916 129.095C89.6788 128.248 88.2812 125.792 88.2177 125.707L87.9424 125.199L100.309 116.562C101.707 115.63 103.358 115.292 104.989 115.63C106.619 115.969 108.017 116.922 108.927 118.34L113.988 126.194C114.179 126.491 114.094 126.872 113.798 127.062C113.501 127.253 113.12 127.168 112.93 126.872L107.869 119.018C107.149 117.896 106.048 117.133 104.735 116.879C103.443 116.604 102.109 116.879 101.029 117.62L89.6576 125.559C90.1658 126.216 91.3093 127.401 93.1304 127.888C95.375 128.502 98.0008 127.93 100.944 126.216L101.474 125.898L105.095 131.677L104.565 132.016C101.791 133.773 99.8642 136.526 99.1654 139.743C98.4666 142.961 99.0807 146.264 100.902 149.016C101.092 149.312 101.008 149.693 100.711 149.905C100.627 149.948 100.521 149.99 100.394 149.99Z" fill="#9A3B82"/>
<path d="M107.191 155.643C101.622 159.305 95.8835 161.909 91.5637 162.926L86.7568 156.151C89.4461 152.637 94.253 148.403 99.9492 144.655C106.048 140.633 112.062 137.839 116.233 136.971C118.647 136.484 120.447 136.632 121.315 137.563L121.527 137.817C121.548 137.86 121.569 137.881 121.591 137.923C121.612 137.944 121.612 137.966 121.633 138.008C121.654 138.05 121.675 138.071 121.696 138.114C123.136 141.353 116.805 149.292 107.191 155.643Z" fill="#9A3B82"/>
<path d="M256.562 128.333V146.942C256.562 152.34 249.066 156.701 239.855 156.701C230.622 156.701 223.147 152.34 223.147 146.942V128.333H256.562Z" fill="#E57281"/>
<path d="M228.039 153.843C225.011 152.086 223.126 149.63 223.126 146.942V128.333H256.562V133.499C256.562 138.855 253.301 143.66 248.346 145.672L228.039 153.843Z" fill="#9A3B82"/>
<path d="M265.88 127.232V127.55C265.88 130.768 263.275 133.372 260.057 133.372H256.224C254.932 138.58 250.231 142.454 244.598 142.454H235.112C229.5 142.454 224.778 138.601 223.508 133.372H219.675C216.456 133.372 213.852 130.768 213.852 127.55V127.232C213.852 124.015 216.456 121.411 219.675 121.411H223.148V116.817C223.148 111.905 226.769 107.84 231.491 107.163C232.528 108.899 235.662 113.048 242.057 112.815C245.064 112.709 247.86 112.138 250.168 111.46C252.942 110.656 255.716 112.35 256.414 114.996C256.52 115.589 256.584 116.181 256.584 116.795V121.389H260.057C263.254 121.389 265.88 124.015 265.88 127.232Z" fill="#E57281"/>
<path d="M259.231 121.389H256.563V116.287C256.563 115.843 256.499 115.398 256.394 114.996C255.695 112.349 252.921 110.656 250.147 111.46C247.839 112.138 245.065 112.709 242.037 112.815C235.642 113.048 232.508 108.899 231.47 107.163C226.748 107.84 223.127 111.905 223.127 116.816V121.41H219.802C219.802 121.41 215.991 107.628 218.849 103.733C221.666 99.9012 225.054 101.574 225.054 101.574C225.054 101.574 223.021 90.0993 234.371 90.311C245.7 90.5227 260.438 103.67 261.518 106.083C263.212 109.788 259.231 121.389 259.231 121.389Z" fill="#9A3B82"/>
<path d="M257.855 128.841C257.558 128.841 257.325 128.608 257.325 128.312C257.325 125.771 259.4 123.697 261.941 123.697C262.238 123.697 262.471 123.929 262.471 124.226C262.471 124.522 262.238 124.755 261.941 124.755C259.972 124.755 258.384 126.343 258.384 128.312C258.384 128.608 258.151 128.841 257.855 128.841Z" fill="#9A3B82"/>
<path d="M221.899 128.841C221.602 128.841 221.369 128.608 221.369 128.312C221.369 126.343 219.781 124.755 217.812 124.755C217.515 124.755 217.282 124.522 217.282 124.226C217.282 123.929 217.515 123.697 217.812 123.697C220.353 123.697 222.428 125.771 222.428 128.312C222.428 128.608 222.195 128.841 221.899 128.841Z" fill="#9A3B82"/>
<path d="M251.227 117.346C251.121 117.346 251.015 117.303 250.909 117.24C250.803 117.155 248.072 115.228 244.578 116.689C244.302 116.795 244.006 116.668 243.879 116.393C243.773 116.118 243.9 115.821 244.175 115.694C248.241 114.022 251.396 116.266 251.523 116.372C251.756 116.541 251.82 116.88 251.629 117.113C251.545 117.261 251.396 117.346 251.227 117.346Z" fill="#9A3B82"/>
<path d="M228.273 117.346C228.103 117.346 227.955 117.261 227.849 117.134C227.68 116.902 227.722 116.563 227.955 116.393C228.082 116.288 231.258 114.043 235.303 115.716C235.578 115.822 235.705 116.139 235.599 116.415C235.494 116.69 235.176 116.817 234.901 116.711C231.385 115.25 228.611 117.24 228.569 117.261C228.484 117.304 228.379 117.346 228.273 117.346Z" fill="#9A3B82"/>
<path d="M241.19 135.171C240.364 135.171 239.411 135.002 238.331 134.599C238.056 134.494 237.908 134.197 238.014 133.922C238.12 133.647 238.416 133.499 238.691 133.604C243.138 135.256 244.599 132.334 244.663 132.207C244.79 131.953 245.108 131.826 245.362 131.953C245.616 132.08 245.743 132.398 245.616 132.652C245.595 132.694 244.388 135.171 241.19 135.171Z" fill="#9A3B82"/>
<path d="M239.686 131.191C239.199 131.191 238.67 131.191 238.225 131.149C237.928 131.128 237.717 130.874 237.738 130.577C237.759 130.281 238.013 130.069 238.31 130.09C239.559 130.175 241.486 130.09 241.507 130.09C241.804 130.069 242.036 130.302 242.058 130.598C242.079 130.895 241.846 131.128 241.549 131.149C241.507 131.149 240.639 131.191 239.686 131.191Z" fill="#9A3B82"/>
<path d="M247.818 125.644C248.402 125.644 248.876 124.848 248.876 123.866C248.876 122.884 248.402 122.088 247.818 122.088C247.233 122.088 246.759 122.884 246.759 123.866C246.759 124.848 247.233 125.644 247.818 125.644Z" fill="#9A3B82"/>
<path d="M232.635 125.644C233.22 125.644 233.694 124.848 233.694 123.866C233.694 122.884 233.22 122.088 232.635 122.088C232.05 122.088 231.576 122.884 231.576 123.866C231.576 124.848 232.05 125.644 232.635 125.644Z" fill="#9A3B82"/>
<path d="M235.154 130.387H228.484C226.917 130.387 225.625 129.095 225.625 127.529V120.86C225.625 119.293 226.917 118.002 228.484 118.002H235.154C236.721 118.002 238.013 119.293 238.013 120.86V127.529C238.034 128.27 237.737 128.989 237.208 129.519C236.657 130.09 235.937 130.387 235.154 130.387ZM228.484 119.06C227.488 119.06 226.684 119.865 226.684 120.86V127.529C226.684 128.524 227.488 129.328 228.484 129.328H235.154C235.641 129.328 236.107 129.138 236.446 128.778C236.785 128.439 236.954 127.994 236.954 127.529V120.86C236.954 119.865 236.149 119.06 235.154 119.06H228.484Z" fill="white"/>
<path d="M251.48 130.387H244.81C243.243 130.387 241.951 129.095 241.951 127.529V120.86C241.951 119.293 243.243 118.002 244.81 118.002H251.48C253.047 118.002 254.339 119.293 254.339 120.86V127.529C254.339 129.095 253.047 130.387 251.48 130.387ZM244.81 119.06C243.815 119.06 243.01 119.865 243.01 120.86V127.529C243.01 128.524 243.815 129.328 244.81 129.328H251.48C252.475 129.328 253.28 128.524 253.28 127.529V120.86C253.28 119.865 252.475 119.06 251.48 119.06H244.81Z" fill="white"/>
<path d="M242.481 122.405H237.505V123.464H242.481V122.405Z" fill="white"/>
<path d="M253.239 216.063H230.094C227.638 216.063 225.647 214.073 225.647 211.617V199.317C225.647 196.862 227.638 194.872 230.094 194.872H253.239C255.696 194.872 257.686 196.862 257.686 199.317V211.617C257.686 214.073 255.696 216.063 253.239 216.063ZM230.094 196.142C228.337 196.142 226.918 197.56 226.918 199.317V211.617C226.918 213.374 228.337 214.793 230.094 214.793H253.239C254.997 214.793 256.416 213.374 256.416 211.617V199.317C256.416 197.56 254.997 196.142 253.239 196.142H230.094Z" fill="#66B0F0"/>
<path d="M242.249 210.475H234.414C233.165 210.475 232.148 209.458 232.148 208.209V202.726C232.148 201.477 233.165 200.461 234.414 200.461H242.249C243.499 200.461 244.515 201.477 244.515 202.726V208.209C244.515 209.458 243.499 210.475 242.249 210.475Z" fill="#66B0F0"/>
<path d="M249.872 210.326L247.458 208.717C246.802 208.273 246.399 207.51 246.399 206.685V204.271C246.399 203.446 246.802 202.684 247.458 202.239L249.872 200.63C250.444 200.249 251.185 200.672 251.185 201.392V209.585C251.206 210.284 250.444 210.707 249.872 210.326Z" fill="#66B0F0"/>
<path d="M562.783 285.354H0.635267C0.275282 285.354 0 285.079 0 284.719C0 284.359 0.275282 284.083 0.635267 284.083H562.783C563.143 284.083 563.418 284.359 563.418 284.719C563.418 285.079 563.143 285.354 562.783 285.354Z" fill="#3FB1B5"/>
<path d="M181.623 288.423V549.793H166.863V500.042C166.863 495.406 163.094 491.638 158.456 491.638H52.8116C48.1741 491.638 44.4049 495.406 44.4049 500.042V549.793H29.6455V288.423H181.623Z" fill="white"/>
<path d="M182.258 550.428H166.228V500.043C166.228 495.766 162.734 492.273 158.457 492.273H52.8121C48.5346 492.273 45.0407 495.766 45.0407 500.043V550.428H29.0107V287.788H182.258V550.428ZM167.499 549.158H180.988V289.058H30.2813V549.158H43.7701V500.043C43.7701 495.068 47.8358 491.003 52.8121 491.003H158.457C163.433 491.003 167.499 495.068 167.499 500.043V549.158Z" fill="#3FB1B5"/>
<path d="M182.067 288.423V357.777L29.6455 483.254L29.6667 288.423H182.067Z" fill="#D0F0E4"/>
<path d="M158.901 364.319H52.3883C47.645 364.319 43.791 360.466 43.791 355.724V308.323C43.791 303.581 47.645 299.728 52.3883 299.728H158.901C163.645 299.728 167.499 303.581 167.499 308.323V355.724C167.499 360.466 163.645 364.319 158.901 364.319ZM52.3883 300.998C48.3438 300.998 45.0615 304.28 45.0615 308.323V355.724C45.0615 359.768 48.3438 363.049 52.3883 363.049H158.901C162.946 363.049 166.228 359.768 166.228 355.724V308.323C166.228 304.28 162.946 300.998 158.901 300.998H52.3883Z" fill="#3FB1B5"/>
<path d="M132.728 399.589H80.2973L78.1162 384.579H130.568L132.728 399.589Z" fill="#FFCF2D"/>
<path d="M160.701 375.921C154.158 375.921 148.864 381.213 148.864 387.755V399.589H104.247V387.755C104.247 381.213 109.541 375.921 116.084 375.921H160.701Z" fill="white"/>
<path d="M149.5 400.224H103.612V387.755C103.612 380.875 109.203 375.286 116.085 375.286H160.702V376.556C154.518 376.556 149.5 381.573 149.5 387.755V400.224ZM104.883 398.954H148.229V387.755C148.229 382.843 151.088 378.588 155.217 376.556H116.085C109.901 376.556 104.883 381.573 104.883 387.755V398.954Z" fill="#3FB1B5"/>
<path d="M171.819 384.579H127.202C125.825 379.583 121.23 375.921 115.788 375.921H160.405C165.847 375.921 170.421 379.583 171.819 384.579Z" fill="white"/>
<path d="M172.666 385.215H126.736L126.609 384.749C125.275 379.922 120.828 376.556 115.81 376.556V375.286H160.426C165.996 375.286 170.951 379.033 172.454 384.41L172.666 385.215ZM127.668 383.944H170.951C169.363 379.562 165.127 376.556 160.405 376.556H121.273C124.259 378.017 126.63 380.663 127.668 383.944Z" fill="#3FB1B5"/>
<path d="M158.901 463.545H52.3883C47.645 463.545 43.791 459.692 43.791 454.95V407.549C43.791 402.807 47.645 398.954 52.3883 398.954H158.901C163.645 398.954 167.499 402.807 167.499 407.549V454.95C167.499 459.692 163.645 463.545 158.901 463.545ZM52.3883 400.224C48.3438 400.224 45.0615 403.505 45.0615 407.549V454.95C45.0615 458.993 48.3438 462.274 52.3883 462.274H158.901C162.946 462.274 166.228 458.993 166.228 454.95V407.549C166.228 403.505 162.946 400.224 158.901 400.224H52.3883Z" fill="#3FB1B5"/>
<path d="M127.476 331.717C127.116 331.717 126.841 331.442 126.841 331.082C126.841 327.652 124.067 324.879 120.637 324.879H90.6732C87.2428 324.879 84.4688 327.652 84.4688 331.082C84.4688 331.442 84.1935 331.717 83.8335 331.717C83.4735 331.717 83.1982 331.442 83.1982 331.082C83.1982 326.953 86.544 323.608 90.6732 323.608H120.637C124.766 323.608 128.112 326.953 128.112 331.082C128.112 331.442 127.836 331.717 127.476 331.717Z" fill="#3FB1B5"/>
<path d="M127.476 430.942C127.116 430.942 126.841 430.667 126.841 430.307C126.841 426.878 124.067 424.104 120.637 424.104H90.6732C87.2428 424.104 84.4688 426.878 84.4688 430.307C84.4688 430.667 84.1935 430.942 83.8335 430.942C83.4735 430.942 83.1982 430.667 83.1982 430.307C83.1982 426.179 86.544 422.834 90.6732 422.834H120.637C124.766 422.834 128.112 426.179 128.112 430.307C128.112 430.667 127.836 430.942 127.476 430.942Z" fill="#3FB1B5"/>
<path d="M540.4 288.423H524.666V550.365H540.4V288.423Z" fill="white"/>
<path d="M541.035 551H524.031V287.788H541.035V551ZM525.302 549.73H539.765V289.058H525.302V549.73Z" fill="#3FB1B5"/>
<path d="M601.364 551H273.016C272.656 551 272.381 550.725 272.381 550.365C272.381 550.005 272.656 549.73 273.016 549.73H601.364C601.724 549.73 602 550.005 602 550.365C602 550.725 601.724 551 601.364 551Z" fill="#3FB1B5"/>
<path d="M74.3262 248.792H64.8184C64.8184 248.792 51.2449 192.246 39.3231 190.404C27.4012 188.563 26.7871 210.326 26.7871 210.326C26.7871 210.326 26.9989 177.236 56.7929 181.767C86.6081 186.297 74.3262 248.792 74.3262 248.792Z" fill="white"/>
<path d="M74.8564 249.428H64.3322L64.2051 248.941C64.1628 248.792 60.7535 234.651 55.9467 220.488C47.9846 197.052 42.4578 191.526 39.2391 191.04C37.0369 190.701 35.0887 191.209 33.4794 192.564C27.8679 197.221 27.4444 210.22 27.4444 210.347L26.1738 210.326C26.1738 210.156 26.2162 206.282 27.4655 201.328C28.6302 196.734 31.0866 190.32 36.2322 185.916C41.4626 181.449 48.4082 179.84 56.9207 181.153C62.4264 181.979 66.8944 184.815 70.219 189.536C75.5552 197.137 77.9904 209.437 77.4187 226.14C76.9952 238.525 75.0047 248.814 74.9835 248.919L74.8564 249.428ZM65.3274 248.157H73.8188C74.2212 245.934 75.7882 236.789 76.1481 226.077C76.5293 214.793 75.6188 199.444 69.1814 190.277C66.0686 185.832 61.8758 183.185 56.7301 182.423C48.6199 181.195 41.992 182.698 37.058 186.911C35.5758 188.182 34.3052 189.642 33.2464 191.188C35.0464 189.918 37.1216 189.473 39.4509 189.833C44.6389 190.637 50.6104 200.841 57.1748 220.149C61.4735 232.83 64.671 245.532 65.3274 248.157Z" fill="#3FB1B5"/>
<path d="M70.1546 248.581C69.8158 248.581 69.5193 248.306 69.5193 247.946C68.8205 205.795 59.8844 190.913 52.5153 185.874C46.925 182.042 42.0334 183.778 41.9911 183.799C41.6523 183.926 41.2923 183.757 41.1652 183.418C41.0382 183.08 41.2076 182.72 41.5464 182.593C41.7793 182.508 47.0944 180.624 53.2353 184.816C57.9786 188.076 61.8538 194.046 64.7336 202.599C68.4394 213.607 70.4722 228.85 70.7898 247.925C70.7898 248.284 70.5146 248.581 70.1546 248.581Z" fill="#3FB1B5"/>
<path d="M100.224 247.946H55.5645V284.295H100.224V247.946Z" fill="#FE5244"/>
<path d="M109.626 266.131C106.788 267.359 103.4 267.21 100.245 265.834C97.9157 264.818 95.7135 263.146 93.9348 260.859C91.4784 257.684 89.8267 253.344 89.8267 247.945C89.8267 234.862 79.4083 226.648 75.1309 243.965C74.8344 245.172 74.5591 246.485 74.3262 247.945V247.903V247.818C74.3262 247.776 74.3262 247.713 74.3474 247.649V247.564C74.4321 246.485 74.7497 243.288 75.7238 239.435C76.4437 236.577 77.5237 233.401 79.133 230.459C79.9377 228.998 80.8694 227.601 81.9706 226.352C84.8081 223.091 88.7044 220.805 94.0194 220.805C103.803 220.805 110.96 232.322 113.692 243.796C116.084 253.767 115.11 263.739 109.626 266.131Z" fill="white"/>
<path d="M105.454 267.592C103.654 267.592 101.77 267.189 99.9911 266.406C97.4712 265.305 95.2055 263.527 93.4267 261.241C90.6527 257.663 89.1916 253.048 89.1916 247.946C89.1916 241.975 86.5658 235.243 82.6484 234.778C79.8108 234.439 77.3121 237.847 75.7451 244.114C75.4275 245.426 75.1734 246.696 74.9405 248.051L73.6699 247.946V247.818C73.6699 247.776 73.6699 247.67 73.6911 247.564V247.501C73.7758 246.315 74.1146 243.14 75.0887 239.266C75.9569 235.836 77.1215 232.766 78.5615 230.141C79.472 228.511 80.4249 227.114 81.4837 225.928C84.8083 222.096 89.0222 220.17 94.0196 220.17C104.184 220.17 111.532 231.962 114.306 243.648C115.534 248.792 115.873 253.852 115.238 257.896C114.539 262.447 112.675 265.475 109.88 266.703C108.525 267.295 107.021 267.592 105.454 267.592ZM82.2672 233.486C82.4578 233.486 82.6272 233.507 82.7966 233.528C87.0317 234.037 90.4621 240.515 90.4621 247.967C90.4621 252.794 91.8385 257.133 94.4431 260.5C96.0948 262.617 98.1912 264.268 100.499 265.284C103.527 266.597 106.767 266.703 109.372 265.58C114.115 263.506 115.619 254.635 113.078 243.987C111.659 237.995 109.139 232.47 106.005 228.426C102.469 223.875 98.3394 221.482 94.0196 221.482C89.4245 221.482 85.5282 223.282 82.4578 226.817C81.4625 227.961 80.552 229.252 79.705 230.819C78.6462 232.766 77.7356 234.947 76.9945 237.36C77.3545 236.768 77.7145 236.238 78.0956 235.773C79.5991 233.931 81.1237 233.486 82.2672 233.486Z" fill="#3FB1B5"/>
<path d="M107.36 267.168C107.043 267.168 106.767 266.935 106.725 266.597C103.633 237.572 96.5819 228.596 91.2245 226.182C86.4388 224.023 82.3943 226.839 82.3519 226.86C82.0766 227.072 81.6743 226.987 81.4625 226.712C81.2508 226.436 81.3355 226.034 81.6108 225.823C81.8013 225.696 86.2906 222.562 91.7327 225.018C95.3325 226.648 98.4665 230.332 101.029 236.005C104.247 243.098 106.577 253.344 107.974 266.449C108.017 266.787 107.763 267.105 107.403 267.147C107.403 267.168 107.381 267.168 107.36 267.168Z" fill="#3FB1B5"/>
<path d="M26.1518 210.326C26.1518 213.819 25.7495 227.177 38.4972 227.791C51.2449 228.405 52.5154 209.161 52.5154 209.161C52.5154 209.161 46.2474 192.14 39.323 190.404C27.6129 187.462 26.1518 210.326 26.1518 210.326Z" fill="#3FB1B5"/>
<path d="M89.8267 247.946H74.3262C77.9048 225.526 89.8267 233.952 89.8267 247.946Z" fill="#3FB1B5"/>
<path opacity="0.4" d="M353.06 83.2818V223.028C353.06 230.543 346.961 236.619 339.465 236.619H179.484C169.447 250.443 148.758 250.507 138.636 236.619L138.615 236.598C134.592 236.323 131.034 234.269 128.747 231.242L132.432 228.066L226.451 146.941L315.981 69.6904H339.465C346.961 69.6904 353.06 75.7875 353.06 83.2818Z" fill="white"/>
<path opacity="0.4" d="M109.626 266.766C106.809 268.036 103.4 267.845 100.245 266.469V284.295H67.2744L93.9556 261.283L100.266 255.842L105.073 251.692L114.369 243.796C117.079 255.355 115.576 264.035 109.626 266.766Z" fill="white"/>
<path d="M390.392 360.826V478.66H363.16L345.817 430.244L320.979 360.826H390.392Z" fill="#A0505A"/>
<path d="M320.979 360.826H390.392V398.657L329.237 383.881L320.979 360.826Z" fill="#73325A"/>
<path d="M391.028 479.295H362.716L344.653 428.867L346.136 429.672C346.178 429.693 349.693 431.577 356.85 432.509C363.457 433.377 374.638 433.567 390.244 429.608L391.028 429.418V479.295ZM363.605 478.025H389.757V431.048C374.299 434.88 363.203 434.647 356.575 433.779C351.768 433.144 348.592 432.106 346.919 431.429L363.605 478.025Z" fill="white"/>
<path d="M359.985 442.247C357.931 442.247 356.258 440.575 356.258 438.521C356.258 436.468 357.931 434.795 359.985 434.795C362.039 434.795 363.712 436.468 363.712 438.521C363.712 440.575 362.039 442.247 359.985 442.247ZM359.985 436.065C358.629 436.065 357.528 437.166 357.528 438.521C357.528 439.876 358.629 440.977 359.985 440.977C361.34 440.977 362.441 439.876 362.441 438.521C362.441 437.166 361.34 436.065 359.985 436.065Z" fill="white"/>
<path d="M374.723 452.219C372.669 452.219 370.996 450.546 370.996 448.493C370.996 446.439 372.669 444.767 374.723 444.767C376.777 444.767 378.45 446.439 378.45 448.493C378.45 450.546 376.777 452.219 374.723 452.219ZM374.723 446.037C373.368 446.037 372.267 447.138 372.267 448.493C372.267 449.848 373.368 450.948 374.723 450.948C376.078 450.948 377.179 449.848 377.179 448.493C377.179 447.138 376.078 446.037 374.723 446.037Z" fill="white"/>
<path d="M385.692 441.146C383.638 441.146 381.965 439.474 381.965 437.42C381.965 435.367 383.638 433.694 385.692 433.694C387.746 433.694 389.419 435.367 389.419 437.42C389.419 439.474 387.746 441.146 385.692 441.146ZM385.692 434.965C384.337 434.965 383.235 436.065 383.235 437.42C383.235 438.775 384.337 439.876 385.692 439.876C387.047 439.876 388.148 438.775 388.148 437.42C388.148 436.065 387.047 434.965 385.692 434.965Z" fill="white"/>
<path d="M381.351 463.82C379.297 463.82 377.624 462.147 377.624 460.094C377.624 458.04 379.297 456.368 381.351 456.368C383.405 456.368 385.078 458.04 385.078 460.094C385.078 462.147 383.405 463.82 381.351 463.82ZM381.351 457.638C379.996 457.638 378.895 458.739 378.895 460.094C378.895 461.449 379.996 462.549 381.351 462.549C382.706 462.549 383.807 461.449 383.807 460.094C383.807 458.739 382.706 457.638 381.351 457.638Z" fill="white"/>
<path d="M363.077 458.189C361.023 458.189 359.35 456.516 359.35 454.463C359.35 452.409 361.023 450.737 363.077 450.737C365.131 450.737 366.803 452.409 366.803 454.463C366.803 456.516 365.131 458.189 363.077 458.189ZM363.077 452.007C361.721 452.007 360.62 453.108 360.62 454.463C360.62 455.817 361.721 456.918 363.077 456.918C364.432 456.918 365.533 455.817 365.533 454.463C365.533 453.108 364.432 452.007 363.077 452.007Z" fill="white"/>
<path d="M368.116 475.125C366.062 475.125 364.389 473.452 364.389 471.399C364.389 469.345 366.062 467.673 368.116 467.673C370.17 467.673 371.842 469.345 371.842 471.399C371.842 473.452 370.17 475.125 368.116 475.125ZM368.116 468.943C366.76 468.943 365.659 470.044 365.659 471.399C365.659 472.754 366.76 473.855 368.116 473.855C369.471 473.855 370.572 472.754 370.572 471.399C370.572 470.044 369.471 468.943 368.116 468.943Z" fill="white"/>
<path d="M403.267 500.636L384.59 539.399C381.943 545.644 375.823 549.709 369.026 549.709H345.203C339.105 549.709 335.399 543.527 337.728 537.896L361.678 480.143C363.012 476.628 365.363 473.707 368.306 471.653C371.271 469.6 374.828 468.435 378.576 468.435C383.785 468.435 388.952 471.971 392.383 475.887L400.683 484.842C404.516 489.203 405.511 495.322 403.267 500.636Z" fill="#66B0F0"/>
<path d="M403.267 500.635L384.59 539.398C381.943 545.644 375.824 549.708 369.026 549.708H343.7C341.35 549.708 340.016 548.248 339.232 546.236H344.865C351.662 546.236 357.782 542.172 360.429 535.926L381.965 491.024C383.976 486.832 388.233 484.144 392.891 484.144C398.969 484.144 403.585 488.589 404.432 494.221C404.517 496.38 404.135 498.561 403.267 500.635Z" fill="white"/>
<path d="M369.026 550.344H343.7C341.349 550.344 339.634 549.031 338.639 546.469C338.554 546.279 338.596 546.046 338.702 545.877C338.829 545.707 339.02 545.601 339.232 545.601H344.864C351.408 545.601 357.295 541.706 359.836 535.672C359.836 535.672 359.836 535.651 359.857 535.651L381.392 490.749C383.51 486.345 388.02 483.509 392.891 483.509C399.01 483.509 404.135 487.975 405.067 494.136C405.067 494.157 405.067 494.178 405.067 494.2C405.151 496.486 404.749 498.751 403.86 500.889C403.86 500.889 403.86 500.911 403.838 500.911L385.162 539.652C382.409 546.152 376.077 550.344 369.026 550.344ZM340.227 546.872C341.032 548.375 342.154 549.073 343.7 549.073H369.026C375.569 549.073 381.456 545.178 383.997 539.144C383.997 539.144 383.997 539.123 384.018 539.123L402.695 500.381C403.5 498.434 403.881 496.38 403.796 494.284C402.949 488.78 398.375 484.779 392.891 484.779C388.507 484.779 384.442 487.34 382.536 491.299L361 536.181C358.247 542.68 351.916 546.872 344.864 546.872H340.227Z" fill="#66B0F0"/>
<path d="M398.969 482.979C396.724 481.751 394.013 480.862 391.642 480.862C387.089 480.862 382.875 483.509 380.906 487.616L358.608 534.106C355.77 540.817 349.206 545.157 341.9 545.157H337.792C337.581 544.755 337.432 544.331 337.284 543.887H341.9C348.698 543.887 354.796 539.843 357.443 533.598L357.464 533.577L379.783 487.065C381.965 482.514 386.623 479.592 391.663 479.592C393.272 479.592 395.199 480.121 396.851 480.693L398.969 482.979Z" fill="white"/>
<path d="M320.979 360.826L315.664 430.244L313.292 461.343C313.292 461.343 297.813 478.576 280.194 467.948L272.042 430.265L253.386 344.038C248.346 320.729 264.27 298.056 287.924 294.901L320.979 360.826Z" fill="#A0505A"/>
<path d="M292.116 472.881C288.326 472.881 284.154 471.928 279.877 469.346L279.644 469.197L271.216 429.355L272.232 429.672C292.285 435.685 315.282 429.715 315.515 429.651L316.383 429.418L313.927 462.465L313.779 462.635C313.609 462.804 309.755 467.059 303.636 470.065C300.565 471.547 296.584 472.881 292.116 472.881ZM280.766 468.393C287.796 472.542 295.292 472.712 303.043 468.922C308.294 466.339 311.936 462.698 312.677 461.915L314.964 431.07C313.037 431.514 308.04 432.594 301.581 433.187C294.149 433.885 283.244 434.055 272.868 431.175L280.766 468.393Z" fill="white"/>
<path d="M291.332 450.08C289.278 450.08 287.605 448.408 287.605 446.354C287.605 444.301 289.278 442.628 291.332 442.628C293.386 442.628 295.059 444.301 295.059 446.354C295.059 448.408 293.386 450.08 291.332 450.08ZM291.332 443.899C289.977 443.899 288.876 444.999 288.876 446.354C288.876 447.709 289.977 448.81 291.332 448.81C292.688 448.81 293.789 447.709 293.789 446.354C293.789 444.999 292.688 443.899 291.332 443.899Z" fill="white"/>
<path d="M310.984 445.338C308.93 445.338 307.257 443.666 307.257 441.612C307.257 439.559 308.93 437.886 310.984 437.886C313.038 437.886 314.711 439.559 314.711 441.612C314.711 443.666 313.038 445.338 310.984 445.338ZM310.984 439.157C309.629 439.157 308.527 440.258 308.527 441.612C308.527 442.967 309.629 444.068 310.984 444.068C312.339 444.068 313.44 442.967 313.44 441.612C313.44 440.258 312.339 439.157 310.984 439.157Z" fill="white"/>
<path d="M279.474 441.147C277.42 441.147 275.747 439.474 275.747 437.421C275.747 435.367 277.42 433.695 279.474 433.695C281.528 433.695 283.201 435.367 283.201 437.421C283.201 439.474 281.528 441.147 279.474 441.147ZM279.474 434.965C278.119 434.965 277.018 436.066 277.018 437.421C277.018 438.775 278.119 439.876 279.474 439.876C280.829 439.876 281.93 438.775 281.93 437.421C281.93 436.066 280.829 434.965 279.474 434.965Z" fill="white"/>
<path d="M288.241 466.911C286.187 466.911 284.514 465.238 284.514 463.185C284.514 461.131 286.187 459.459 288.241 459.459C290.295 459.459 291.967 461.131 291.967 463.185C291.967 465.238 290.295 466.911 288.241 466.911ZM288.241 460.729C286.885 460.729 285.784 461.83 285.784 463.185C285.784 464.54 286.885 465.641 288.241 465.641C289.596 465.641 290.697 464.54 290.697 463.185C290.697 461.83 289.596 460.729 288.241 460.729Z" fill="white"/>
<path d="M302.661 460.729C300.607 460.729 298.935 459.057 298.935 457.003C298.935 454.95 300.607 453.277 302.661 453.277C304.715 453.277 306.388 454.95 306.388 457.003C306.388 459.057 304.715 460.729 302.661 460.729ZM302.661 454.547C301.306 454.547 300.205 455.648 300.205 457.003C300.205 458.358 301.306 459.459 302.661 459.459C304.017 459.459 305.118 458.358 305.118 457.003C305.118 455.648 304.017 454.547 302.661 454.547Z" fill="white"/>
<path d="M333.705 468.753L313.291 550.365H306.854C306.558 550.365 306.282 550.344 305.986 550.322C301.115 549.878 297.007 545.771 295.97 540.923L280.173 467.906C297.791 478.555 313.291 461.322 313.291 461.322L333.705 468.753Z" fill="#66B0F0"/>
<path d="M334.742 510.628C339.041 487.934 340.227 470.595 332.815 469.198C325.404 467.801 312.211 482.853 307.913 505.547C303.614 528.242 305.859 548.312 313.27 549.709C320.682 551.127 330.443 533.344 334.742 510.628Z" fill="white"/>
<path d="M314.117 550.429C313.799 550.429 313.461 550.407 313.143 550.344C309.289 549.624 306.6 544.416 305.562 535.694C304.567 527.289 305.181 516.535 307.277 505.441C309.268 494.962 313.312 485.202 318.67 477.962C323.583 471.336 328.919 467.822 332.921 468.584C336.775 469.303 338.681 473.665 338.787 481.921C338.871 488.653 337.749 498.074 335.356 510.755C333.662 519.689 331.1 528.094 327.945 535.059C324.832 541.939 321.423 546.766 318.098 549.031C316.743 549.942 315.409 550.429 314.117 550.429ZM331.82 469.748C328.432 469.748 323.879 473.093 319.707 478.724C314.456 485.816 310.496 495.385 308.527 505.674C306.451 516.662 305.837 527.268 306.812 535.546C307.764 543.548 310.157 548.481 313.376 549.095C314.604 549.328 315.959 548.947 317.399 547.973C323.9 543.548 330.782 528.157 334.107 510.522C336.5 497.947 337.601 488.59 337.516 481.942C337.431 474.49 335.801 470.426 332.688 469.833C332.413 469.769 332.116 469.748 331.82 469.748Z" fill="#66B0F0"/>
<path d="M304.948 505.187C302.725 516.958 302.068 528.326 303.127 537.218C303.889 543.611 305.498 548.163 307.701 550.365H306.854C306.557 550.365 306.282 550.344 305.986 550.322C303.995 547.697 302.576 543.294 301.856 537.366C300.776 528.369 301.433 516.852 303.699 504.954C305.837 493.692 310.157 483.128 315.896 475.189C319.326 470.446 322.926 467.123 326.208 465.62L328.114 466.255C320.554 468.499 309.077 483.403 304.948 505.187Z" fill="white"/>
<path d="M287.925 294.881L384.528 284.93L481.088 312.007L480.262 324.837C478.95 345.076 461.501 360.826 441.215 360.826H321.001L287.925 294.881Z" fill="#FE5244"/>
<path d="M436.958 352.571H316.745C316.385 352.571 316.109 352.296 316.109 351.936C316.109 351.576 316.385 351.301 316.745 351.301H436.958C446.148 351.301 455.783 346.453 463.407 337.963C470.627 329.919 474.947 319.863 474.947 311.077C474.947 310.717 475.223 310.442 475.583 310.442C475.942 310.442 476.218 310.717 476.218 311.077C476.218 320.18 471.771 330.554 464.359 338.831C456.482 347.554 446.508 352.571 436.958 352.571Z" fill="white"/>
<path d="M427.492 341.985H311.874C311.514 341.985 311.238 341.71 311.238 341.35C311.238 340.99 311.514 340.715 311.874 340.715H427.492C435.518 340.715 443.818 336.947 450.828 330.087C457.413 323.652 462.029 315.353 463.491 307.308C463.554 306.969 463.893 306.736 464.232 306.8C464.571 306.864 464.803 307.202 464.74 307.541C461.754 323.821 445.724 341.985 427.492 341.985Z" fill="white"/>
<path d="M417.307 331.188H305.733C305.373 331.188 305.098 330.913 305.098 330.553C305.098 330.193 305.373 329.918 305.733 329.918H417.307C432.553 329.918 445.788 316.2 450.51 303.307C450.637 302.968 450.997 302.799 451.315 302.926C451.654 303.053 451.823 303.413 451.696 303.73C449.07 310.907 444.327 317.661 438.313 322.741C431.77 328.267 424.507 331.188 417.307 331.188Z" fill="white"/>
<path d="M411.801 319.545H300.227C299.867 319.545 299.592 319.269 299.592 318.91C299.592 318.55 299.867 318.274 300.227 318.274H411.801C422.304 318.274 433.315 311.436 440.557 300.449C440.748 300.153 441.15 300.068 441.447 300.258C441.743 300.449 441.828 300.851 441.637 301.148C434.141 312.495 422.728 319.545 411.801 319.545Z" fill="white"/>
<path d="M406.507 308.959H294.933C294.573 308.959 294.298 308.684 294.298 308.324C294.298 307.964 294.573 307.689 294.933 307.689H406.507C414.596 307.689 422.749 303.963 429.462 297.21C429.716 296.956 430.118 296.956 430.351 297.21C430.605 297.464 430.605 297.866 430.351 298.099C423.405 305.106 414.935 308.959 406.507 308.959Z" fill="white"/>
<path d="M400.79 298.163H289.216C288.856 298.163 288.581 297.887 288.581 297.527C288.581 297.168 288.856 296.892 289.216 296.892H400.79C405.555 296.892 410.341 295.537 415.042 292.891C415.338 292.722 415.74 292.828 415.91 293.124C416.079 293.42 415.973 293.823 415.677 293.992C410.785 296.765 405.767 298.163 400.79 298.163Z" fill="white"/>
<path d="M320.768 361.462C320.535 361.462 320.302 361.335 320.196 361.102L287.141 295.156C286.993 294.839 287.12 294.458 287.416 294.31C287.734 294.161 288.115 294.288 288.264 294.585L321.319 360.531C321.467 360.848 321.34 361.229 321.043 361.378C320.959 361.441 320.874 361.462 320.768 361.462Z" fill="white"/>
<path d="M486.382 223.642C477.277 226.225 468.319 225.463 467.366 222.689C466.477 220.043 470.5 215.513 478.653 212.506C479.055 212.358 479.479 212.21 479.902 212.062C482.359 211.236 484.815 210.707 487.123 210.432C493.963 209.564 499.532 210.792 500.231 212.866C501.184 215.64 496.017 220.911 486.382 223.642Z" fill="white"/>
<path d="M475.54 225.865C470.923 225.865 467.429 224.827 466.752 222.901C465.608 219.514 470.627 214.793 478.42 211.913C478.822 211.765 479.245 211.617 479.669 211.469H479.69C482.083 210.664 484.56 210.114 487.038 209.818C494.047 208.928 499.976 210.156 500.823 212.676C501.12 213.501 500.971 214.517 500.421 215.576C498.642 218.963 493.2 222.393 486.551 224.277C482.718 225.335 478.843 225.865 475.54 225.865ZM491.464 210.791C490.172 210.791 488.753 210.876 487.207 211.067C484.815 211.363 482.422 211.892 480.114 212.676C479.69 212.824 479.267 212.972 478.885 213.12C475.201 214.475 472.067 216.275 470.076 218.201C468.404 219.81 467.62 221.419 467.98 222.499C468.679 224.552 476.831 225.695 486.212 223.049C491.4 221.588 497.456 218.519 499.299 214.983C499.68 214.242 499.807 213.586 499.637 213.078C499.256 211.956 496.249 210.791 491.464 210.791Z" fill="#3FB1B5"/>
<path d="M480.621 285.375H477.128L467.959 223.494V223.451L467.726 221.906C468.17 219.09 472.575 215.11 480.346 212.527C484.221 211.236 488.075 210.664 491.358 210.601L494.703 219.768L495.021 220.636L505.609 249.66C511.961 266.999 499.108 285.375 480.621 285.375Z" fill="#A0505A"/>
<path d="M494.915 220.424C492.692 221.821 489.812 223.113 486.381 224.086C478.504 226.309 470.521 225.399 467.959 223.494V223.451L467.726 221.906C468.17 219.09 472.575 215.11 480.346 212.527C484.221 211.236 488.075 210.664 491.358 210.601L494.915 220.424Z" fill="#73325A"/>
<path d="M367.205 234.46L356.088 262.109C350.604 275.764 337.348 284.719 322.61 284.719H173.174V271.043C173.174 267.74 175.207 264.776 178.298 263.612L193.651 257.79C195.048 257.261 196.509 256.985 197.992 256.985H215.419L314.055 247.035L331.08 208.061L367.205 234.46Z" fill="#A0505A"/>
<path d="M173.809 276.822C173.449 276.822 173.174 276.547 173.174 276.187C173.174 273.414 174.847 270.979 177.451 269.984L189.034 265.602C189.352 265.475 189.733 265.644 189.86 265.962C189.987 266.279 189.818 266.66 189.5 266.787L177.917 271.17C175.821 271.974 174.444 273.943 174.444 276.187C174.444 276.547 174.169 276.822 173.809 276.822Z" fill="#73325A"/>
<path d="M173.809 283.808C173.449 283.808 173.174 283.533 173.174 283.173C173.174 280.4 174.847 277.965 177.451 276.97L189.034 272.588C189.352 272.461 189.733 272.63 189.86 272.948C189.987 273.265 189.818 273.646 189.5 273.773L177.917 278.156C175.821 278.96 174.444 280.929 174.444 283.173C174.444 283.533 174.169 283.808 173.809 283.808Z" fill="#73325A"/>
<path d="M177.684 284.719C177.43 284.719 177.176 284.549 177.091 284.295C176.964 283.957 177.133 283.597 177.472 283.491L189.055 279.32C189.394 279.193 189.754 279.363 189.86 279.701C189.987 280.04 189.818 280.4 189.479 280.506L177.896 284.676C177.832 284.698 177.747 284.719 177.684 284.719Z" fill="#73325A"/>
<path d="M188.061 260.14C188.061 260.14 198.902 232.47 202.375 232.936C205.848 233.401 192.762 258.361 192.762 258.361L188.061 260.14Z" fill="#FE5244"/>
<path d="M331.08 208.082L328.581 213.777L360.577 250.931L367.205 234.46L331.08 208.082Z" fill="#73325A"/>
<path d="M467.959 223.515L481.088 312.007L384.548 284.93L367.206 234.439L322.44 201.731L338.153 183.016C352.171 166.313 372.859 156.659 394.67 156.659H425.692C452.67 156.659 477.509 171.394 490.447 195.062L500.506 212.464C500.506 212.464 497.478 208.018 481.151 212.485C466.773 216.444 467.959 223.515 467.959 223.515Z" fill="#3FB1B5"/>
<path d="M367.206 234.672C367.164 234.672 367.1 234.672 367.058 234.651C366.719 234.566 366.507 234.227 366.592 233.889L371.611 212.125C371.695 211.787 372.034 211.575 372.373 211.66C372.712 211.744 372.923 212.083 372.839 212.422L367.82 234.185C367.757 234.481 367.502 234.672 367.206 234.672Z" fill="white"/>
<path d="M478.653 291.98C478.356 291.98 478.081 291.769 478.018 291.451L461.691 189.981C461.628 189.642 461.86 189.304 462.22 189.261C462.559 189.198 462.898 189.431 462.94 189.791L479.267 291.26C479.33 291.599 479.097 291.938 478.737 291.98C478.716 291.98 478.695 291.98 478.653 291.98Z" fill="white"/>
<path d="M480.876 312.642C480.813 312.642 480.771 312.642 480.707 312.621L384.358 285.142C384.019 285.036 383.829 284.697 383.914 284.358C384.019 284.02 384.358 283.829 384.697 283.914L481.046 311.393C481.385 311.499 481.575 311.838 481.491 312.176C481.406 312.452 481.152 312.642 480.876 312.642Z" fill="white"/>
<path d="M389.736 142.517V156.743L414.85 156.531V131.423L389.736 142.517Z" fill="#A0505A"/>
<path d="M416.883 127.041V127.422C416.883 131.233 414.003 134.324 410.192 134.324H408.709C407.756 138.092 399.286 142.496 393.272 142.496H386.263C378.598 142.496 372.732 135.615 373.981 128.036L374.32 125.983L372.245 124.818C371.059 124.141 370.72 122.596 371.546 121.495L376.035 115.567L377.01 109.724C377.793 104.918 380.948 101.002 385.141 99.0752C386.793 117.684 403.225 119.886 407.566 120.14H409.98C413.792 120.14 416.883 123.231 416.883 127.041Z" fill="#A0505A"/>
<path d="M405.766 129.497C405.406 129.497 405.131 129.222 405.131 128.862C405.131 125.517 407.863 122.786 411.208 122.786C411.568 122.786 411.844 123.061 411.844 123.421C411.844 123.781 411.568 124.056 411.208 124.056C408.561 124.056 406.401 126.216 406.401 128.862C406.401 129.222 406.126 129.497 405.766 129.497Z" fill="#73325A"/>
<path d="M382.811 120.33C383.408 120.33 383.891 119.212 383.891 117.832C383.891 116.452 383.408 115.334 382.811 115.334C382.215 115.334 381.731 116.452 381.731 117.832C381.731 119.212 382.215 120.33 382.811 120.33Z" fill="#73325A"/>
<path d="M387.216 114.678C387.025 114.678 386.834 114.593 386.707 114.424C383.891 110.528 381.265 110.74 381.223 110.74C380.863 110.782 380.566 110.528 380.524 110.169C380.482 109.83 380.736 109.512 381.096 109.47C381.223 109.449 384.484 109.195 387.724 113.662C387.936 113.937 387.872 114.339 387.576 114.551C387.47 114.635 387.343 114.678 387.216 114.678Z" fill="#73325A"/>
<path d="M407.566 120.14H409.98C413.792 120.14 416.883 123.231 416.883 127.041V127.422C416.883 131.233 414.003 134.324 410.192 134.324L408.561 135.467C401.7 139.871 392.214 157.188 394.543 169.446C397.169 183.228 409.175 186.297 420.271 184.18C431.367 182.063 439.457 175.606 436.831 161.803C436.534 160.173 436.047 158.543 435.433 156.934C435.624 156.998 435.793 157.061 435.984 157.125C449.324 160.766 464.994 161.189 469.314 150.773C473.634 140.358 472.66 130.048 459.679 124.67C452.141 121.537 441.892 121.558 433.951 123.718C437.953 109.809 430.838 94.3331 417.773 92.7877C397.254 90.3531 385.48 98.8213 385.162 99.0541C385.141 101.51 386.814 118.933 407.566 120.14Z" fill="#73325A"/>
<path d="M435.984 157.781C435.687 157.781 435.412 157.569 435.369 157.273C433.125 145.523 423.511 139.045 423.405 138.981C423.236 138.876 423.13 138.664 423.13 138.452C423.13 138.24 423.236 138.05 423.405 137.923C429.97 133.287 432.807 126.597 433.908 123.04C434.014 122.701 434.374 122.511 434.692 122.617C435.031 122.723 435.221 123.082 435.115 123.4C434.014 126.999 431.219 133.604 424.845 138.431C427.238 140.23 434.628 146.539 436.619 157.019C436.682 157.357 436.449 157.696 436.111 157.76C436.068 157.781 436.026 157.781 435.984 157.781Z" fill="white"/>
<path d="M440.24 123.4H434.628C434.268 123.4 433.993 123.125 433.993 122.765V117.154C433.993 113.873 436.661 111.206 439.944 111.206H440.24C443.522 111.206 446.19 113.873 446.19 117.154V117.451C446.212 119.017 445.597 120.521 444.475 121.643C443.353 122.765 441.849 123.4 440.24 123.4ZM435.264 122.13H440.24C441.511 122.13 442.675 121.643 443.565 120.732C444.433 119.843 444.92 118.679 444.92 117.451V117.154C444.92 114.572 442.823 112.476 440.24 112.476H439.944C437.36 112.476 435.264 114.572 435.264 117.154V122.13Z" fill="#FE5244"/>
<path d="M443.374 131.995C441.108 131.995 438.927 130.894 437.635 128.862L434.035 123.146C433.845 122.849 433.929 122.447 434.226 122.278L439.943 118.679C441.468 117.726 443.289 117.409 445.047 117.811C446.804 118.213 448.308 119.272 449.282 120.796L449.621 121.325C450.595 122.849 450.891 124.67 450.489 126.427C450.087 128.184 449.028 129.687 447.503 130.661L446.974 131C445.873 131.656 444.623 131.995 443.374 131.995ZM435.454 122.998L438.715 128.184C440.325 130.725 443.734 131.487 446.317 129.878L446.847 129.539C448.096 128.756 448.943 127.549 449.261 126.11C449.578 124.67 449.324 123.209 448.541 121.96L448.202 121.431C447.418 120.182 446.211 119.335 444.771 119.018C443.331 118.7 441.87 118.954 440.621 119.737L435.454 122.998Z" fill="#FE5244"/>
<path d="M408.688 148.932C408.54 148.932 408.391 148.932 408.243 148.91C406.655 148.783 405.215 148.064 404.177 146.857L403.987 146.624C402.949 145.438 402.441 143.914 402.547 142.348C402.653 140.76 403.373 139.299 404.58 138.262L408.561 134.451C408.688 134.324 408.857 134.26 409.027 134.282C409.196 134.282 409.365 134.366 409.471 134.493L413.389 138.918C414.426 140.125 414.956 141.67 414.829 143.258C414.702 144.846 413.982 146.285 412.775 147.323L412.521 147.513C411.483 148.423 410.128 148.932 408.688 148.932ZM408.984 135.806L405.469 139.172L405.448 139.193C404.495 140.019 403.923 141.162 403.839 142.432C403.754 143.681 404.156 144.867 404.961 145.798C404.961 145.798 404.961 145.819 404.982 145.819L405.173 146.052C405.977 146.984 407.1 147.555 408.349 147.661C409.598 147.746 410.805 147.344 411.758 146.539L412.012 146.328C412.944 145.523 413.516 144.401 413.622 143.152C413.706 141.903 413.304 140.696 412.499 139.744L408.984 135.806Z" fill="#FE5244"/>
<path d="M416.798 146.603C413.833 146.603 411.102 144.634 410.255 141.649L408.455 135.15C408.37 134.811 408.56 134.472 408.899 134.366L415.4 132.567C417.137 132.08 418.958 132.313 420.525 133.181C422.092 134.07 423.235 135.51 423.722 137.245L423.892 137.859C424.379 139.595 424.146 141.416 423.278 142.983C422.388 144.549 420.948 145.692 419.212 146.179L418.598 146.349C417.984 146.539 417.391 146.603 416.798 146.603ZM411.483 141.31C412.309 144.211 415.337 145.947 418.238 145.142L418.852 144.973C420.271 144.57 421.435 143.66 422.155 142.39C422.875 141.12 423.045 139.638 422.663 138.219L422.494 137.605C422.092 136.187 421.181 135.023 419.911 134.303C418.64 133.583 417.158 133.414 415.739 133.795L409.852 135.425L411.483 141.31Z" fill="#FE5244"/>
<path d="M316.193 550.344C316.151 550.344 316.108 550.344 316.066 550.323C315.727 550.259 315.494 549.921 315.579 549.561L352.467 376.958C352.53 376.619 352.869 376.387 353.229 376.471C353.568 376.535 353.801 376.874 353.716 377.233L316.807 549.836C316.744 550.132 316.49 550.344 316.193 550.344Z" fill="#FFCF2D"/>
<path d="M484.37 550.344C484.073 550.344 483.819 550.132 483.755 549.836L446.868 377.234C446.804 376.895 447.016 376.556 447.355 376.471C447.694 376.408 448.032 376.62 448.117 376.958L485.005 549.561C485.068 549.899 484.857 550.238 484.518 550.323C484.454 550.344 484.412 550.344 484.37 550.344Z" fill="#FFCF2D"/>
<path d="M475.688 512.025H324.368C324.008 512.025 323.732 511.75 323.732 511.39C323.732 511.03 324.008 510.755 324.368 510.755H475.688C476.048 510.755 476.323 511.03 476.323 511.39C476.323 511.75 476.048 512.025 475.688 512.025Z" fill="#FFCF2D"/>
<path d="M476.512 377.106H324.027C322.1 377.106 320.533 375.54 320.533 373.613V364.319C320.533 362.393 322.1 360.826 324.027 360.826H476.512C478.439 360.826 480.006 362.393 480.006 364.319V373.613C480.006 375.54 478.439 377.106 476.512 377.106Z" fill="white"/>
<path d="M476.513 377.741H324.028C321.741 377.741 319.898 375.899 319.898 373.613V364.319C319.898 362.033 321.741 360.191 324.028 360.191H476.513C478.8 360.191 480.642 362.033 480.642 364.319V373.613C480.642 375.899 478.8 377.741 476.513 377.741ZM324.028 361.461C322.461 361.461 321.169 362.753 321.169 364.319V373.613C321.169 375.18 322.461 376.471 324.028 376.471H476.513C478.08 376.471 479.372 375.18 479.372 373.613V364.319C479.372 362.753 478.08 361.461 476.513 361.461H324.028Z" fill="#66B0F0"/>
</svg>
