<svg width="600" height="440" viewBox="0 0 600 440" fill="none" xmlns="http://www.w3.org/2000/svg">
<path d="M600 419.861H0L107.705 356.188H493.943L600 419.861Z" fill="#D0F0E4"/>
<path d="M344.007 108.578H236.062V46.0907C236.062 41.8597 239.487 38.4301 243.714 38.4301H336.355C340.581 38.4301 344.007 41.8597 344.007 46.0907V108.578Z" fill="white"/>
<path fill-rule="evenodd" clip-rule="evenodd" d="M243.714 38.9108C239.753 38.9108 236.543 42.1252 236.543 46.0907V108.097H343.528V46.0907C343.528 42.1252 340.317 38.9108 336.356 38.9108H243.714ZM344.008 108.578H344.488V46.0907C344.488 41.5941 340.847 37.9492 336.356 37.9492H243.714C239.223 37.9492 235.582 41.5941 235.582 46.0907V109.059H344.008V108.578Z" fill="#66B0F0"/>
<path d="M335.86 104.507H244.659C242.258 104.507 240.305 102.552 240.305 100.148V46.5875C240.305 44.1835 242.258 42.2283 244.659 42.2283H335.86C338.261 42.2283 340.214 44.1835 340.214 46.5875V100.164C340.214 102.568 338.261 104.507 335.86 104.507Z" fill="#66B0F0"/>
<path d="M362.931 123.242C367.061 125.934 366.1 131.207 361.218 131.207H214.163C210.049 131.207 208.64 125.646 212.675 123.098L362.931 123.242Z" fill="#66B0F0"/>
<path fill-rule="evenodd" clip-rule="evenodd" d="M212.535 122.617L363.072 122.761L363.192 122.839C365.39 124.272 366.304 126.447 365.924 128.33C365.538 130.241 363.852 131.688 361.217 131.688H214.162C211.852 131.688 210.296 130.112 209.892 128.208C209.488 126.302 210.23 124.073 212.417 122.691L212.535 122.617ZM212.815 123.579C211.059 124.748 210.518 126.528 210.832 128.008C211.153 129.522 212.358 130.726 214.162 130.726H361.217C363.464 130.726 364.7 129.537 364.982 128.139C365.265 126.741 364.626 124.978 362.784 123.723L212.815 123.579Z" fill="#66B0F0"/>
<path d="M361.216 127.537H214.162C211.536 127.537 210.496 124.444 212.673 123.098L236.094 108.578H343.703L362.913 123.242C364.834 124.701 363.714 127.537 361.216 127.537Z" fill="white"/>
<path fill-rule="evenodd" clip-rule="evenodd" d="M235.958 108.097H343.866L363.204 122.859C364.343 123.724 364.597 125.03 364.169 126.114C363.744 127.19 362.661 128.018 361.217 128.018H214.162C212.644 128.018 211.544 127.114 211.162 125.976C210.777 124.83 211.136 123.484 212.421 122.689L212.421 122.689M212.421 122.689L235.958 108.097L212.421 122.689ZM236.231 109.059L212.927 123.507L212.926 123.507C212.034 124.059 211.825 124.932 212.072 125.669C212.323 126.415 213.056 127.057 214.162 127.057H361.217C362.27 127.057 362.997 126.466 363.276 125.76C363.552 125.061 363.406 124.219 362.624 123.625L343.541 109.059H236.231Z" fill="#66B0F0"/>
<path d="M344.248 123.162H231.132C229.114 123.162 228.314 120.774 229.979 119.749L246.244 108.578H330.769L345.545 119.861C347.033 120.983 346.169 123.162 344.248 123.162Z" fill="white"/>
<path fill-rule="evenodd" clip-rule="evenodd" d="M246.094 108.097H330.93L345.833 119.477C345.833 119.477 345.834 119.477 345.834 119.478C346.756 120.173 346.968 121.23 346.621 122.109C346.278 122.98 345.403 123.643 344.247 123.643H231.131C229.915 123.643 229.029 122.913 228.719 121.994C228.408 121.07 228.693 119.982 229.716 119.346L246.094 108.097ZM246.392 109.059L230.24 120.152L230.23 120.158C229.597 120.548 229.453 121.163 229.629 121.687C229.808 122.217 230.33 122.681 231.131 122.681H344.247C345.013 122.681 345.531 122.255 345.728 121.756C345.921 121.265 345.821 120.671 345.255 120.245L345.254 120.244L345.253 120.243L330.606 109.059H246.392Z" fill="#66B0F0"/>
<path fill-rule="evenodd" clip-rule="evenodd" d="M337.907 123.505L323.115 108.921L323.789 108.236L338.581 122.82L337.907 123.505Z" fill="#66B0F0"/>
<path fill-rule="evenodd" clip-rule="evenodd" d="M328.281 123.483L315.25 108.898L315.966 108.257L328.997 122.841L328.281 123.483Z" fill="#66B0F0"/>
<path fill-rule="evenodd" clip-rule="evenodd" d="M319.199 123.457L307.896 108.873L308.655 108.284L319.957 122.868L319.199 123.457Z" fill="#66B0F0"/>
<path fill-rule="evenodd" clip-rule="evenodd" d="M309.236 123.426L299.679 108.842L300.482 108.315L310.039 122.899L309.236 123.426Z" fill="#66B0F0"/>
<path fill-rule="evenodd" clip-rule="evenodd" d="M297.477 123.309L292.818 108.725L293.733 108.432L298.392 123.016L297.477 123.309Z" fill="#66B0F0"/>
<path fill-rule="evenodd" clip-rule="evenodd" d="M237.981 122.82L252.773 108.236L253.447 108.921L238.655 123.505L237.981 122.82Z" fill="#66B0F0"/>
<path fill-rule="evenodd" clip-rule="evenodd" d="M247.566 122.842L260.597 108.258L261.313 108.899L248.282 123.483L247.566 122.842Z" fill="#66B0F0"/>
<path fill-rule="evenodd" clip-rule="evenodd" d="M256.605 122.868L267.907 108.284L268.666 108.873L257.364 123.457L256.605 122.868Z" fill="#66B0F0"/>
<path fill-rule="evenodd" clip-rule="evenodd" d="M266.524 122.899L276.082 108.315L276.885 108.842L267.328 123.426L266.524 122.899Z" fill="#66B0F0"/>
<path fill-rule="evenodd" clip-rule="evenodd" d="M278.171 123.016L282.829 108.432L283.744 108.725L279.086 123.309L278.171 123.016Z" fill="#66B0F0"/>
<path fill-rule="evenodd" clip-rule="evenodd" d="M288.378 108.578V123.339H287.417V108.578H288.378Z" fill="#66B0F0"/>
<path fill-rule="evenodd" clip-rule="evenodd" d="M337.923 114.508H238.318V113.546H337.923V114.508Z" fill="#66B0F0"/>
<path d="M328.27 104.507H247.283L248.74 94.1698C249.636 87.8072 254.199 82.5826 260.362 80.8197L280.101 76.7169H295.453L315.191 80.8197C321.371 82.5666 325.933 87.8072 326.814 94.1698L328.27 104.507Z" fill="#FFCF2D"/>
<path d="M293.243 88.5284L287.4 82.6146C287.272 82.4864 287.272 82.2781 287.4 82.1659C287.528 82.0377 287.736 82.0377 287.848 82.1659L293.211 87.5988L301.535 78.1593C301.647 78.031 301.855 78.015 301.984 78.1272C302.112 78.2394 302.128 78.4477 302.016 78.5759L293.243 88.5284Z" fill="white"/>
<path d="M282.389 88.5286L273.617 78.5762C273.504 78.448 273.504 78.2396 273.649 78.1274C273.777 78.0153 273.985 78.0153 274.097 78.1595L282.421 87.5991L287.784 82.1661C287.912 82.0379 288.104 82.0379 288.232 82.1661C288.36 82.2943 288.36 82.4866 288.232 82.6149L282.389 88.5286Z" fill="white"/>
<path d="M287.912 92.391C287.144 92.391 286.52 91.766 286.52 90.9967C286.52 90.2274 287.144 89.6024 287.912 89.6024C288.681 89.6024 289.305 90.2274 289.305 90.9967C289.305 91.766 288.681 92.391 287.912 92.391ZM287.912 90.2435C287.496 90.2435 287.16 90.58 287.16 90.9967C287.16 91.4134 287.496 91.75 287.912 91.75C288.328 91.75 288.665 91.4134 288.665 90.9967C288.665 90.58 288.328 90.2435 287.912 90.2435Z" fill="white"/>
<path d="M287.912 100.244C287.144 100.244 286.52 99.6188 286.52 98.8495C286.52 98.0802 287.144 97.4552 287.912 97.4552C288.681 97.4552 289.305 98.0802 289.305 98.8495C289.305 99.6188 288.681 100.244 287.912 100.244ZM287.912 98.0963C287.496 98.0963 287.16 98.4328 287.16 98.8495C287.16 99.2662 287.496 99.6027 287.912 99.6027C288.328 99.6027 288.665 99.2662 288.665 98.8495C288.665 98.4328 288.328 98.0963 287.912 98.0963Z" fill="white"/>
<path d="M280.006 104.171H253.848L246.868 83.4323L273.026 75.9319L280.006 104.171Z" fill="white"/>
<path fill-rule="evenodd" clip-rule="evenodd" d="M273.256 75.5321L280.414 104.491H253.617L246.457 83.2164L273.256 75.5321ZM247.278 83.6479L254.077 103.85H279.596L272.794 76.3314L247.278 83.6479Z" fill="#66B0F0"/>
<path d="M255.207 86.1249H254.711C253.446 86.1249 252.422 85.0992 252.422 83.8331V76.6372C252.422 76.1243 252.838 75.7076 253.35 75.7076H255.511C256.024 75.7076 256.44 76.1243 256.44 76.6372V84.8748C256.456 85.5639 255.896 86.1249 255.207 86.1249Z" fill="white"/>
<path fill-rule="evenodd" clip-rule="evenodd" d="M253.35 76.0279C253.015 76.0279 252.742 76.3011 252.742 76.6369V83.8328C252.742 84.9219 253.623 85.8041 254.711 85.8041H255.207C255.72 85.8041 256.131 85.3869 256.12 84.882L256.12 84.8783V76.6369C256.12 76.3011 255.847 76.0279 255.511 76.0279H253.35ZM252.102 76.6369C252.102 75.947 252.661 75.3868 253.35 75.3868H255.511C256.2 75.3868 256.76 75.9471 256.76 76.6369V84.871C256.778 85.7426 256.07 86.4451 255.207 86.4451H254.711C253.269 86.4451 252.102 85.2759 252.102 83.8328V76.6369Z" fill="#66B0F0"/>
<path d="M265.741 86.1249H266.237C267.502 86.1249 268.526 85.0992 268.526 83.8331V76.6372C268.526 76.1243 268.11 75.7076 267.598 75.7076H265.421C264.908 75.7076 264.492 76.1243 264.492 76.6372V84.8748C264.492 85.5639 265.052 86.1249 265.741 86.1249Z" fill="white"/>
<path d="M259.226 86.9579H258.073C257.176 86.9579 256.456 86.2367 256.456 85.3392V76.6529C256.456 76.14 256.872 75.7233 257.385 75.7233H259.546C260.058 75.7233 260.474 76.14 260.474 76.6529V85.7078C260.474 86.397 259.914 86.9579 259.226 86.9579Z" fill="white"/>
<path d="M263.259 87.2788H262.299C261.29 87.2788 260.474 86.4614 260.474 85.4517V76.6372C260.474 76.1243 260.89 75.7076 261.402 75.7076H263.563C264.076 75.7076 264.492 76.1243 264.492 76.6372V86.0287C264.492 86.7178 263.931 87.2788 263.259 87.2788Z" fill="white"/>
<path fill-rule="evenodd" clip-rule="evenodd" d="M264.172 76.6369C264.172 75.947 264.731 75.3868 265.421 75.3868H267.598C268.287 75.3868 268.846 75.9471 268.846 76.6369V83.8328C268.846 85.2759 267.678 86.4451 266.237 86.4451H265.741C264.876 86.4451 264.172 85.7407 264.172 84.8745V76.6369ZM265.421 76.0279C265.085 76.0279 264.812 76.3011 264.812 76.6369V84.8745C264.812 85.3867 265.229 85.8041 265.741 85.8041H266.237C267.325 85.8041 268.206 84.9219 268.206 83.8328V76.6369C268.206 76.3011 267.933 76.0279 267.598 76.0279H265.421Z" fill="#66B0F0"/>
<path fill-rule="evenodd" clip-rule="evenodd" d="M257.384 76.044C257.049 76.044 256.776 76.3172 256.776 76.653V85.3394C256.776 86.0598 257.353 86.6375 258.073 86.6375H259.225C259.737 86.6375 260.154 86.2201 260.154 85.708V76.653C260.154 76.3172 259.881 76.044 259.546 76.044H257.384ZM256.136 76.653C256.136 75.9631 256.695 75.403 257.384 75.403H259.546C260.235 75.403 260.794 75.9631 260.794 76.653V85.708C260.794 86.5742 260.091 87.2786 259.225 87.2786H258.073C256.999 87.2786 256.136 86.4139 256.136 85.3394V76.653Z" fill="#66B0F0"/>
<path fill-rule="evenodd" clip-rule="evenodd" d="M261.403 76.0279C261.068 76.0279 260.795 76.3011 260.795 76.6369V85.4515C260.795 86.2841 261.468 86.958 262.299 86.958H263.26C263.753 86.958 264.172 86.5432 264.172 86.0284V76.6369C264.172 76.3011 263.9 76.0279 263.564 76.0279H261.403ZM260.154 76.6369C260.154 75.9471 260.714 75.3868 261.403 75.3868H263.564C264.253 75.3868 264.813 75.947 264.813 76.6369V86.0284C264.813 86.8919 264.112 87.599 263.26 87.599H262.299C261.114 87.599 260.154 86.6382 260.154 85.4515V76.6369Z" fill="#66B0F0"/>
<path d="M295.469 67.2934V78.9927C295.469 81.0121 292.027 82.6628 287.785 82.6628C283.542 82.6628 280.101 81.0121 280.101 78.9927V67.2934H295.469Z" fill="white"/>
<path d="M295.467 67.2934C295.467 76.124 289.816 78.7524 284.39 78.2876C284.373 78.2876 284.357 78.2876 284.341 78.2876C281.94 78.0632 280.115 76.0118 280.115 73.6078V67.3094H295.467V67.2934Z" fill="#66B0F0"/>
<path d="M299.039 64.2801V64.8731C299.039 66.1873 297.982 67.245 296.67 67.245H295.453L295.469 67.5175C295.469 71.2997 292.411 74.3608 288.633 74.3608H286.952C283.174 74.3608 280.117 71.2997 280.117 67.5175L280.133 67.245H278.916C277.603 67.245 276.547 66.1873 276.547 64.8731V64.2801C276.547 62.966 277.603 61.9082 278.916 61.9082H280.469L280.645 59.0074C280.645 58.5587 280.709 58.126 280.837 57.7253C285.416 58.8632 290.778 55.9143 292.219 55.0328C293.82 55.6418 294.957 57.1804 294.957 58.9914L295.133 61.8922H296.686C297.982 61.9082 299.039 62.966 299.039 64.2801Z" fill="white"/>
<path d="M296.782 61.9084H295.117L294.941 59.0076C294.941 57.1967 293.805 55.6581 292.204 55.0491C290.763 55.9145 285.4 58.8634 280.822 57.7415C280.694 58.1422 280.63 58.5749 280.63 59.0237L280.453 61.9245H279.413C279.413 61.9245 277.284 51.6034 279.381 49.7123C280.934 48.318 295.149 51.363 296.718 53.5266C297.599 54.7606 296.782 61.9084 296.782 61.9084Z" fill="#E57281"/>
<path d="M292.78 61.2835C292.732 61.2835 292.668 61.2675 292.62 61.2194C292.604 61.2034 291.563 60.354 289.898 60.354C289.77 60.354 289.658 60.2418 289.658 60.1136C289.658 59.9854 289.77 59.8732 289.898 59.8732C291.739 59.8732 292.876 60.8027 292.924 60.8508C293.02 60.9309 293.036 61.0912 292.956 61.1873C292.924 61.2515 292.844 61.2835 292.78 61.2835Z" fill="#66B0F0"/>
<path d="M286.697 66.2516C286.665 66.2516 286.633 66.2516 286.617 66.2356C286.489 66.1875 286.425 66.0433 286.473 65.9311C286.921 64.7452 286.809 63.2547 286.185 61.9405C285.816 61.1392 285.288 60.5622 284.824 60.402C283.799 60.0494 282.359 60.5462 282.343 60.5462C282.214 60.5943 282.086 60.5302 282.038 60.402C281.99 60.2738 282.054 60.1456 282.182 60.0975C282.247 60.0815 283.783 59.5526 284.968 59.9532C285.56 60.1616 286.169 60.8187 286.601 61.7482C287.273 63.1746 287.385 64.8093 286.905 66.1234C286.889 66.1875 286.793 66.2516 286.697 66.2516Z" fill="#66B0F0"/>
<path d="M289.851 68.8001C289.867 68.9283 289.755 69.0405 289.627 69.0565H289.611C289.483 69.0565 289.387 68.9604 289.371 68.8321C289.355 68.6719 289.323 68.5116 289.275 68.3674C288.586 68.7039 287.962 68.8161 287.45 68.8161C286.441 68.8161 285.833 68.3994 285.801 68.3674C285.689 68.2872 285.673 68.143 285.737 68.0308C285.817 67.9186 285.961 67.9026 286.073 67.9667C286.105 67.9827 286.617 68.3353 287.45 68.3353C287.898 68.3353 288.442 68.2392 289.066 67.9347C288.97 67.7744 288.874 67.6782 288.874 67.6782C288.778 67.5821 288.794 67.4218 288.89 67.3417C288.986 67.2615 289.147 67.2615 289.227 67.3577C289.259 67.4058 289.803 68.0148 289.851 68.8001Z" fill="#66B0F0"/>
<path d="M290.715 64.2196C290.935 64.2058 291.092 63.8366 291.065 63.3948C291.037 62.9531 290.836 62.6062 290.615 62.62C290.395 62.6337 290.238 63.003 290.266 63.4447C290.293 63.8864 290.494 64.2333 290.715 64.2196Z" fill="#66B0F0"/>
<path d="M284.179 64.1556C284.382 64.143 284.526 63.8033 284.5 63.3969C284.475 62.9905 284.29 62.6713 284.087 62.684C283.884 62.6966 283.74 63.0364 283.766 63.4427C283.791 63.8491 283.976 64.1683 284.179 64.1556Z" fill="#66B0F0"/>
<path d="M279.701 65.0495C279.573 65.0495 279.461 64.9373 279.461 64.8091C279.461 64.104 278.885 63.5431 278.196 63.5431C278.068 63.5431 277.956 63.4309 277.956 63.3027C277.956 63.1744 278.068 63.0623 278.196 63.0623C279.157 63.0623 279.941 63.8475 279.941 64.8091C279.941 64.9534 279.829 65.0495 279.701 65.0495Z" fill="#66B0F0"/>
<path d="M295.806 65.0495C295.677 65.0495 295.565 64.9373 295.565 64.8091C295.565 63.8475 296.35 63.0623 297.31 63.0623C297.438 63.0623 297.55 63.1744 297.55 63.3027C297.55 63.4309 297.438 63.5431 297.31 63.5431C296.606 63.5431 296.046 64.12 296.046 64.8091C296.046 64.9534 295.95 65.0495 295.806 65.0495Z" fill="#66B0F0"/>
<path fill-rule="evenodd" clip-rule="evenodd" d="M79.8703 192.904C81.2583 188.099 85.6404 184.8 90.6251 184.8H506.767C511.7 184.8 516.066 188.031 517.488 192.754L517.488 192.755M80.793 193.171L15.3662 419.994L14.4434 419.727L79.8703 192.904L79.8703 192.904M80.793 193.171C80.793 193.171 80.793 193.171 80.7931 193.171C82.0625 188.777 86.0689 185.762 90.6251 185.762H506.767C511.279 185.762 515.27 188.717 516.569 193.032L516.569 193.033L585.133 420L586.053 419.721L517.488 192.755" fill="#66B0F0"/>
<path fill-rule="evenodd" clip-rule="evenodd" d="M386.638 109.059H204.621V108.098H386.638V109.059Z" fill="#66B0F0"/>
<path d="M267.791 143.068H310.79V180.041H267.791C267.791 180.041 267.791 141.674 267.791 143.068Z" fill="#FFCF2D"/>
<path d="M428.58 314.856L408.585 265.014H440.778L428.58 314.856Z" fill="#9A3B82"/>
<path d="M373.719 198.488C378.009 190.362 386.446 185.282 395.618 185.282H420.384L437.209 198.488H373.719Z" fill="#9A3B82"/>
<path d="M467.609 256.84H405.224L428.709 313.911C427.076 311.25 417.295 314.023 406.937 320.385C396.708 326.668 389.792 334.232 391.201 336.989L340.582 248.811C327.455 226.566 343.463 198.488 369.269 198.488H509.071L509.376 199.449C518.5 227.816 497.369 256.84 467.609 256.84Z" fill="#3FB1B5"/>
<path d="M511.489 214.851C511.265 220.059 510.112 225.092 508.159 229.756L434.84 198.504H507.615L509.312 203.472C510.496 206.453 511.153 210.636 511.489 214.851Z" fill="#E6E6E6"/>
<path d="M428.725 313.91C430.358 316.571 423.218 323.831 412.876 330.193C402.519 336.556 392.897 339.745 391.265 337.085C389.632 334.424 396.595 326.908 406.953 320.545C417.295 314.183 427.076 311.25 428.725 313.91Z" fill="#66B0F0"/>
<path fill-rule="evenodd" clip-rule="evenodd" d="M475.53 202.553C475.79 202.498 476.044 202.664 476.099 202.924C478.627 214.922 469.483 226.214 457.235 226.214H368.564C361.617 226.214 357.252 233.702 360.642 239.761C360.642 239.761 360.642 239.761 360.643 239.761L406.17 320.341C406.301 320.572 406.219 320.865 405.988 320.996C405.757 321.127 405.464 321.045 405.334 320.814L359.806 240.233L359.805 240.231C356.056 233.534 360.88 225.252 368.564 225.252H457.235C468.873 225.252 477.562 214.523 475.159 203.123C475.105 202.863 475.271 202.608 475.53 202.553Z" fill="white"/>
<path fill-rule="evenodd" clip-rule="evenodd" d="M421.887 313.542C418.186 314.464 413.242 316.729 407.194 320.256C401.837 323.383 397.415 327.042 394.543 330.236C393.105 331.836 392.071 333.301 391.497 334.509C391.211 335.113 391.048 335.634 390.999 336.062C390.949 336.49 391.014 336.795 391.145 337.009C391.284 337.235 391.213 337.531 390.987 337.67C390.761 337.809 390.466 337.739 390.327 337.513C390.05 337.061 389.978 336.52 390.044 335.951C390.11 335.383 390.316 334.758 390.63 334.096C391.258 332.772 392.358 331.229 393.829 329.593C396.776 326.316 401.278 322.596 406.711 319.425L406.711 319.425C412.782 315.884 417.82 313.565 421.655 312.608C423.571 312.131 425.223 311.984 426.569 312.22C427.931 312.459 428.991 313.094 429.66 314.169C429.801 314.394 429.732 314.691 429.507 314.831C429.282 314.972 428.986 314.903 428.845 314.678C428.346 313.877 427.549 313.368 426.403 313.167C425.243 312.963 423.738 313.08 421.887 313.542Z" fill="white"/>
<path fill-rule="evenodd" clip-rule="evenodd" d="M399.675 243.335C399.92 243.232 400.202 243.348 400.304 243.593L430.048 314.59C430.151 314.835 430.036 315.117 429.791 315.219C429.546 315.322 429.265 315.207 429.162 314.962L399.418 243.964C399.316 243.72 399.431 243.438 399.675 243.335Z" fill="white"/>
<path fill-rule="evenodd" clip-rule="evenodd" d="M440.09 198.44H367.523V197.478H440.09V198.44Z" fill="white"/>
<path d="M408.569 340.755L404.247 334.857L398.292 326.747C400.725 324.696 403.655 322.565 406.937 320.545C413.468 316.539 419.759 313.878 423.938 313.141L426.835 318.927L430.453 326.138C427.892 335.258 408.569 340.755 408.569 340.755Z" fill="#E57281"/>
<path d="M426.85 318.927C424.16 322.212 419.102 326.363 412.874 330.193C409.881 332.036 406.951 333.607 404.262 334.857L398.307 326.747C400.74 324.696 403.669 322.565 406.951 320.545C413.483 316.539 419.774 313.878 423.952 313.141L426.85 318.927Z" fill="#9A3B82"/>
<path d="M450.241 357.919L406.313 389.508C402.583 392.104 396.788 394.267 397.557 384.876C398.629 371.926 401.495 352.663 408.571 340.739C408.875 340.659 427.893 335.162 430.454 326.123L450.481 340.37C456.244 344.858 456.116 353.608 450.241 357.919Z" fill="white"/>
<path fill-rule="evenodd" clip-rule="evenodd" d="M430.177 325.336L450.766 339.984L450.775 339.991C456.789 344.674 456.656 353.807 450.524 358.307L450.522 358.308L406.589 389.9L406.586 389.902C405.635 390.565 404.54 391.208 403.44 391.646C402.348 392.082 401.201 392.337 400.167 392.161C399.096 391.979 398.196 391.345 397.638 390.127C397.095 388.941 396.882 387.219 397.077 384.837L397.077 384.836C397.614 378.348 398.601 370.272 400.342 362.32C402.082 354.374 404.58 346.519 408.156 340.493L408.257 340.324L408.447 340.274C408.447 340.274 408.449 340.273 408.452 340.273L408.467 340.268C408.479 340.265 408.496 340.26 408.518 340.254C408.562 340.241 408.622 340.223 408.7 340.2C408.854 340.154 409.072 340.087 409.347 340C409.896 339.826 410.668 339.571 411.595 339.24C413.449 338.576 415.918 337.606 418.453 336.359C420.991 335.111 423.581 333.593 425.689 331.839C427.802 330.08 429.388 328.118 429.991 325.991L430.177 325.336ZM430.707 326.893C429.918 329.025 428.289 330.925 426.303 332.578C424.115 334.399 421.451 335.956 418.876 337.222C414.252 339.496 409.858 340.86 408.886 341.148C405.437 347.025 402.995 354.694 401.28 362.526C399.551 370.424 398.569 378.454 398.034 384.916C397.845 387.228 398.068 388.758 398.512 389.726C398.941 390.663 399.579 391.086 400.327 391.213C401.111 391.346 402.065 391.16 403.084 390.753C404.095 390.35 405.122 389.75 406.035 389.115C406.036 389.114 406.037 389.113 406.038 389.113L449.956 357.531C449.956 357.531 449.957 357.531 449.958 357.53C455.571 353.409 455.696 345.049 450.193 340.756L430.707 326.893Z" fill="#FFCF2D"/>
<path fill-rule="evenodd" clip-rule="evenodd" d="M432.793 327.439C433.048 327.512 433.196 327.778 433.124 328.033C432.331 330.828 430.47 333.345 428.114 335.53C425.755 337.716 422.873 339.593 419.99 341.105C417.106 342.617 414.207 343.771 411.803 344.507C410.602 344.875 409.517 345.14 408.616 345.293C407.73 345.443 406.972 345.493 406.447 345.394C406.187 345.345 406.015 345.094 406.064 344.833C406.113 344.572 406.364 344.4 406.625 344.449C406.973 344.515 407.59 344.491 408.456 344.345C409.306 344.201 410.349 343.947 411.522 343.588C413.869 342.869 416.713 341.738 419.544 340.253C422.377 338.768 425.182 336.936 427.461 334.824C429.743 332.709 431.472 330.336 432.2 327.77C432.272 327.515 432.538 327.367 432.793 327.439Z" fill="#FFCF2D"/>
<path d="M401.814 386.254C401.814 386.254 430.485 346.38 450.88 348.624C473.084 351.044 383.66 409.508 401.814 386.254Z" fill="#FFCF2D"/>
<path fill-rule="evenodd" clip-rule="evenodd" d="M400.058 385.349C400.058 385.35 400.058 385.35 399.669 385.068L400.058 385.35L400.053 385.357L400.047 385.364C398.479 387.375 398.354 388.884 398.726 389.816C399.102 390.756 400.041 391.267 400.967 391.207C401.231 391.19 401.46 391.391 401.477 391.656C401.494 391.921 401.293 392.15 401.029 392.167C399.729 392.251 398.379 391.536 397.834 390.173C397.287 388.802 397.608 386.933 399.285 384.779L399.285 384.778L399.302 384.755C399.317 384.735 399.339 384.705 399.368 384.666C399.425 384.587 399.511 384.47 399.623 384.318C399.848 384.014 400.181 383.569 400.611 383.005C401.471 381.875 402.723 380.265 404.291 378.34C407.427 374.492 411.833 369.383 416.906 364.345C421.977 359.31 427.728 354.332 433.557 350.758C439.376 347.19 445.336 344.98 450.804 345.582C452.576 345.772 453.817 346.602 454.494 347.751C455.163 348.887 455.248 350.28 454.826 351.549C454.742 351.8 454.47 351.937 454.218 351.853C453.967 351.769 453.831 351.496 453.914 351.244C454.26 350.205 454.177 349.106 453.666 348.239C453.162 347.384 452.21 346.7 450.701 346.538L450.7 346.538C445.546 345.97 439.81 348.051 434.059 351.578C428.319 355.098 422.627 360.019 417.582 365.028C412.54 370.035 408.158 375.117 405.035 378.948C403.474 380.863 402.229 382.465 401.375 383.587C400.947 384.149 400.618 384.59 400.395 384.891C400.284 385.041 400.199 385.156 400.143 385.233C400.115 385.272 400.093 385.301 400.079 385.321L400.063 385.343L400.058 385.349Z" fill="#FFCF2D"/>
<path d="M511.649 218.104C501.5 215.7 476.239 209.369 447.423 202.702C433.88 199.577 422.546 190.346 416.703 177.717L390.465 120.887L406.345 95.6935C411.228 87.9367 419.552 83.0005 428.693 82.4396L444.318 81.478C460.07 80.5164 472.717 90.3567 477.519 105.406L509.296 198.487C512.786 207.206 511.649 218.104 511.649 218.104Z" fill="white"/>
<path fill-rule="evenodd" clip-rule="evenodd" d="M444.346 81.9579C444.346 81.9579 444.345 81.9579 444.345 81.9579L428.721 82.9195C419.735 83.4709 411.55 88.3239 406.75 95.9498L391.009 120.923L417.137 177.515C422.918 190.009 434.131 199.142 447.53 202.234L447.53 202.234C467.438 206.84 485.658 211.287 498.363 214.389C503.727 215.698 508.107 216.767 511.217 217.507C511.24 217.2 511.268 216.772 511.291 216.243C511.343 215.096 511.376 213.475 511.3 211.584C511.149 207.795 510.565 202.953 508.849 198.666L508.844 198.655L477.063 105.561L477.062 105.556L477.06 105.552C472.316 90.6858 459.852 81.0114 444.346 81.9579ZM511.648 218.104L512.126 218.154L512.069 218.697L511.537 218.572C508.394 217.827 503.808 216.707 498.119 215.319C485.416 212.218 467.217 207.776 447.314 203.171C433.626 200.012 422.171 190.682 416.266 177.919L416.265 177.919L389.918 120.852L405.938 95.4371C410.903 87.5494 419.367 82.5301 428.662 81.9597C428.662 81.9597 428.662 81.9597 428.662 81.9597L444.287 80.9981C460.284 80.0216 473.112 90.0254 477.974 105.254C477.974 105.256 477.975 105.258 477.975 105.259L509.745 198.32C511.516 202.749 512.107 207.71 512.26 211.546C512.337 213.469 512.303 215.118 512.251 216.286C512.225 216.871 512.194 217.336 512.169 217.655C512.157 217.815 512.146 217.939 512.138 218.023C512.136 218.044 512.135 218.062 512.133 218.078C512.132 218.094 512.13 218.108 512.129 218.119L512.127 218.144L512.126 218.151L512.126 218.153L512.126 218.153C512.126 218.154 512.126 218.154 511.648 218.104Z" fill="#FE5244"/>
<path fill-rule="evenodd" clip-rule="evenodd" d="M403.874 124.335C403.874 124.335 403.874 124.335 404.279 124.076C404.684 123.818 404.684 123.818 404.684 123.818L404.684 123.818L404.685 123.819L404.688 123.825C404.692 123.83 404.697 123.839 404.705 123.85C404.72 123.873 404.743 123.908 404.774 123.954C404.838 124.047 404.934 124.186 405.063 124.364C405.323 124.72 405.716 125.235 406.248 125.864C407.313 127.123 408.932 128.835 411.14 130.637C415.555 134.242 422.325 138.209 431.742 139.644L431.597 140.594C421.98 139.129 415.055 135.074 410.533 131.383C408.273 129.537 406.612 127.782 405.515 126.486C404.967 125.838 404.559 125.304 404.287 124.93C404.151 124.743 404.049 124.596 403.98 124.495C403.946 124.445 403.92 124.405 403.902 124.378C403.893 124.365 403.886 124.354 403.882 124.347L403.876 124.339L403.875 124.336L403.874 124.335Z" fill="#FE5244"/>
<path d="M415.549 100.165C414.684 99.2354 413.164 99.4918 412.635 100.63C412.043 101.912 413.116 103.338 414.508 103.13C415.933 102.921 416.525 101.207 415.549 100.165Z" fill="#FFCF2D"/>
<path fill-rule="evenodd" clip-rule="evenodd" d="M412.2 100.427C412.87 98.9839 414.8 98.6551 415.9 99.8367C417.141 101.162 416.386 103.341 414.578 103.606C412.81 103.869 411.446 102.059 412.199 100.428L412.2 100.427L412.2 100.427ZM413.071 100.832C412.64 101.765 413.421 102.806 414.437 102.654L414.439 102.654L414.439 102.654C415.48 102.502 415.909 101.252 415.198 100.494L415.197 100.493L415.197 100.493C414.568 99.8161 413.457 100 413.071 100.832Z" fill="#FE5244"/>
<path d="M455.427 127.554C454.562 126.625 453.042 126.881 452.513 128.019C451.921 129.301 452.993 130.727 454.386 130.519C455.811 130.311 456.403 128.596 455.427 127.554Z" fill="#FFCF2D"/>
<path fill-rule="evenodd" clip-rule="evenodd" d="M452.078 127.816C452.748 126.373 454.678 126.044 455.777 127.226C457.018 128.551 456.264 130.73 454.456 130.995C452.687 131.259 451.324 129.448 452.077 127.817L452.078 127.816L452.078 127.816ZM452.949 128.221C452.518 129.154 453.299 130.195 454.315 130.043L454.317 130.043L454.317 130.043C455.357 129.891 455.787 128.641 455.076 127.883L455.075 127.882L455.075 127.882C454.446 127.205 453.335 127.389 452.949 128.221Z" fill="#FE5244"/>
<path d="M468.058 138.773C467.193 137.843 465.672 138.099 465.144 139.237C464.552 140.519 465.624 141.946 467.017 141.737C468.426 141.545 469.018 139.83 468.058 138.773Z" fill="#FFCF2D"/>
<path fill-rule="evenodd" clip-rule="evenodd" d="M464.707 139.035C465.378 137.591 467.308 137.262 468.408 138.445L468.412 138.449C469.62 139.78 468.891 141.964 467.084 142.213C465.316 142.476 463.954 140.665 464.707 139.035L464.707 139.035L464.707 139.035ZM465.579 139.44C465.148 140.373 465.929 141.414 466.945 141.262L466.951 141.261C467.959 141.124 468.413 139.882 467.703 139.098C467.074 138.424 465.965 138.608 465.579 139.44Z" fill="#FE5244"/>
<path d="M492.278 202.253C491.413 201.324 489.892 201.58 489.364 202.718C488.772 204 489.844 205.427 491.237 205.218C492.646 205.01 493.238 203.311 492.278 202.253Z" fill="#FFCF2D"/>
<path fill-rule="evenodd" clip-rule="evenodd" d="M488.928 202.516C489.598 201.072 491.529 200.744 492.629 201.926L492.633 201.93C493.846 203.267 493.104 205.428 491.307 205.694C489.538 205.959 488.174 204.147 488.928 202.517L488.928 202.516L488.928 202.516ZM489.799 202.921C489.369 203.854 490.149 204.895 491.166 204.743L491.167 204.743C492.186 204.592 492.629 203.359 491.924 202.579C491.294 201.905 490.186 202.09 489.799 202.921Z" fill="#FE5244"/>
<path d="M478.719 171.915C477.854 170.986 476.334 171.242 475.805 172.38C475.213 173.662 476.285 175.089 477.678 174.88C479.103 174.672 479.695 172.957 478.719 171.915Z" fill="#FFCF2D"/>
<path fill-rule="evenodd" clip-rule="evenodd" d="M475.37 172.177C476.04 170.734 477.97 170.405 479.07 171.587C480.311 172.912 479.556 175.091 477.748 175.356C475.979 175.62 474.616 173.809 475.369 172.178L475.37 172.177L475.37 172.177ZM476.241 172.582C475.81 173.516 476.591 174.557 477.607 174.405L477.609 174.404L477.609 174.404C478.649 174.252 479.079 173.003 478.368 172.244L478.367 172.243L478.367 172.243C477.738 171.566 476.627 171.75 476.241 172.582Z" fill="#FE5244"/>
<path d="M484.338 150.087C483.089 150.247 482.401 151.642 483.025 152.731C483.729 153.965 485.506 153.917 486.147 152.651C486.803 151.369 485.747 149.895 484.338 150.087Z" fill="#FFCF2D"/>
<path fill-rule="evenodd" clip-rule="evenodd" d="M486.575 152.87C485.762 154.475 483.503 154.537 482.608 152.971C481.815 151.585 482.687 149.816 484.275 149.611C486.065 149.368 487.408 151.241 486.575 152.87ZM485.72 152.432C486.198 151.497 485.429 150.424 484.403 150.564L484.399 150.564C483.491 150.681 482.987 151.699 483.442 152.492L483.442 152.493C483.956 153.394 485.25 153.36 485.719 152.434L485.72 152.432Z" fill="#FE5244"/>
<path d="M494.567 182.461C493.319 182.621 492.63 184.015 493.255 185.105C493.959 186.339 495.736 186.291 496.376 185.025C497.033 183.743 495.992 182.268 494.567 182.461Z" fill="#FFCF2D"/>
<path fill-rule="evenodd" clip-rule="evenodd" d="M496.803 185.243C495.99 186.849 493.732 186.911 492.837 185.344C492.043 183.958 492.916 182.189 494.504 181.984C496.313 181.741 497.635 183.617 496.803 185.243ZM495.948 184.806C496.428 183.868 495.67 182.797 494.631 182.937L494.628 182.938C493.719 183.054 493.216 184.073 493.67 184.866L493.671 184.867C494.185 185.767 495.479 185.733 495.947 184.808L495.948 184.806Z" fill="#FE5244"/>
<path d="M452.144 147.539C451.279 146.61 449.758 146.866 449.23 148.004C448.638 149.286 449.71 150.712 451.103 150.504C452.512 150.296 453.104 148.597 452.144 147.539Z" fill="#FFCF2D"/>
<path fill-rule="evenodd" clip-rule="evenodd" d="M448.795 147.801C449.465 146.358 451.396 146.029 452.496 147.212L452.5 147.216C453.713 148.552 452.971 150.714 451.174 150.98C449.405 151.244 448.042 149.433 448.795 147.802L448.795 147.801L448.795 147.801ZM449.667 148.206C449.236 149.14 450.017 150.181 451.033 150.029L451.034 150.029C452.053 149.878 452.496 148.644 451.791 147.865C451.161 147.191 450.053 147.375 449.667 148.206Z" fill="#FE5244"/>
<path d="M443.323 165.697C442.459 164.768 440.938 165.024 440.41 166.162C439.817 167.444 440.89 168.87 442.283 168.662C443.707 168.454 444.3 166.739 443.323 165.697Z" fill="#FFCF2D"/>
<path fill-rule="evenodd" clip-rule="evenodd" d="M439.975 165.959C440.645 164.516 442.575 164.187 443.675 165.369C444.916 166.693 444.162 168.872 442.354 169.137C440.585 169.401 439.221 167.59 439.975 165.96L439.975 165.959L439.975 165.959ZM440.846 166.364C440.415 167.297 441.196 168.338 442.213 168.186L442.214 168.186L442.214 168.186C443.255 168.034 443.685 166.784 442.974 166.026L442.973 166.024L442.973 166.024C442.343 165.348 441.233 165.532 440.846 166.364Z" fill="#FE5244"/>
<path d="M427.54 159.351C428.468 158.485 428.212 156.963 427.075 156.434C425.795 155.841 424.37 156.915 424.578 158.309C424.786 159.719 426.483 160.312 427.54 159.351Z" fill="#FFCF2D"/>
<path fill-rule="evenodd" clip-rule="evenodd" d="M424.103 158.38C423.839 156.609 425.648 155.243 427.277 155.997L427.278 155.998C428.72 156.669 429.048 158.602 427.867 159.702L427.863 159.706C426.528 160.921 424.369 160.178 424.103 158.38ZM426.873 156.87C425.941 156.439 424.901 157.22 425.053 158.238L425.053 158.239C425.204 159.259 426.436 159.702 427.214 158.997C427.888 158.367 427.703 157.257 426.873 156.87Z" fill="#FE5244"/>
<path d="M441.546 190.602C442.475 189.737 442.219 188.214 441.082 187.686C439.802 187.093 438.377 188.166 438.585 189.561C438.793 190.987 440.506 191.58 441.546 190.602Z" fill="#FFCF2D"/>
<path fill-rule="evenodd" clip-rule="evenodd" d="M438.11 189.631C437.846 187.86 439.655 186.495 441.284 187.249L441.285 187.25C442.726 187.92 443.055 189.853 441.874 190.954C440.551 192.196 438.374 191.441 438.11 189.631ZM440.88 188.122C439.948 187.691 438.908 188.472 439.06 189.49L439.06 189.491L439.06 189.491C439.212 190.533 440.46 190.964 441.218 190.252L441.219 190.251L441.219 190.251C441.895 189.621 441.711 188.509 440.88 188.122Z" fill="#FE5244"/>
<path d="M465.127 163.79C466.055 162.925 465.799 161.402 464.662 160.873C463.382 160.28 461.957 161.354 462.165 162.748C462.373 164.159 464.086 164.768 465.127 163.79Z" fill="#FFCF2D"/>
<path fill-rule="evenodd" clip-rule="evenodd" d="M461.691 162.819C461.427 161.048 463.236 159.682 464.865 160.437L464.866 160.437C466.307 161.108 466.636 163.04 465.456 164.141C464.128 165.387 461.955 164.607 461.691 162.819ZM464.461 161.309C463.529 160.878 462.489 161.66 462.641 162.677L462.641 162.678C462.793 163.709 464.045 164.147 464.799 163.439L464.8 163.438L464.8 163.438C465.476 162.808 465.292 161.696 464.461 161.309Z" fill="#FE5244"/>
<path d="M473.179 197.349C474.108 196.484 473.852 194.962 472.715 194.433C471.434 193.84 470.01 194.913 470.218 196.308C470.41 197.734 472.123 198.327 473.179 197.349Z" fill="#FFCF2D"/>
<path fill-rule="evenodd" clip-rule="evenodd" d="M469.743 196.375C469.482 194.606 471.29 193.242 472.918 193.996L472.919 193.997C474.36 194.667 474.689 196.6 473.508 197.701L473.506 197.702L473.506 197.702C472.175 198.935 469.991 198.198 469.743 196.375ZM472.514 194.869C471.582 194.438 470.542 195.219 470.694 196.237C470.694 196.239 470.694 196.241 470.695 196.243C470.833 197.271 472.073 197.718 472.854 196.997C473.529 196.367 473.345 195.256 472.514 194.869Z" fill="#FE5244"/>
<path d="M424.897 129.381C424.033 128.452 422.512 128.708 421.984 129.846C421.392 131.128 422.464 132.555 423.857 132.346C425.282 132.138 425.874 130.423 424.897 129.381Z" fill="#FFCF2D"/>
<path fill-rule="evenodd" clip-rule="evenodd" d="M421.549 129.643C422.219 128.2 424.149 127.871 425.249 129.053C426.49 130.378 425.736 132.556 423.928 132.821C422.159 133.085 420.796 131.274 421.549 129.644L421.549 129.643L421.549 129.643ZM422.42 130.048C421.99 130.981 422.771 132.022 423.787 131.87L423.788 131.87L423.788 131.87C424.829 131.718 425.259 130.468 424.548 129.71L424.547 129.708L424.547 129.708C423.918 129.032 422.807 129.216 422.42 130.048Z" fill="#FE5244"/>
<path d="M427.764 87.8082C426.899 86.8786 425.378 87.1351 424.85 88.2729C424.258 89.5551 425.33 90.9814 426.723 90.7731C428.148 90.5647 428.74 88.8499 427.764 87.8082Z" fill="#FFCF2D"/>
<path fill-rule="evenodd" clip-rule="evenodd" d="M424.414 88.0705C425.084 86.6273 427.015 86.2984 428.114 87.4801C429.355 88.805 428.601 90.984 426.793 91.2489C425.024 91.5128 423.661 89.7019 424.414 88.0713L424.414 88.0705L424.414 88.0705ZM425.286 88.4754C424.855 89.4087 425.636 90.4498 426.652 90.2977L426.654 90.2975L426.654 90.2975C427.694 90.1453 428.124 88.8958 427.413 88.1374L427.412 88.136L427.412 88.136C426.783 87.4595 425.672 87.6434 425.286 88.4754Z" fill="#FE5244"/>
<path d="M455.427 87.8082C454.562 86.8786 453.042 87.1351 452.513 88.2729C451.921 89.5551 452.993 90.9814 454.386 90.7731C455.811 90.5647 456.403 88.8499 455.427 87.8082Z" fill="#FFCF2D"/>
<path fill-rule="evenodd" clip-rule="evenodd" d="M452.078 88.0705C452.748 86.6273 454.678 86.2984 455.777 87.4801C457.018 88.805 456.264 90.984 454.456 91.2489C452.687 91.5128 451.324 89.7019 452.077 88.0713L452.078 88.0705L452.078 88.0705ZM452.949 88.4754C452.518 89.4087 453.299 90.4498 454.315 90.2977L454.317 90.2975L454.317 90.2975C455.357 90.1453 455.787 88.8958 455.076 88.1374L455.075 88.136L455.075 88.136C454.446 87.4595 453.335 87.6434 452.949 88.4754Z" fill="#FE5244"/>
<path d="M455.474 105.758C454.305 106.223 453.969 107.729 454.849 108.643C455.826 109.652 457.539 109.188 457.859 107.809C458.179 106.415 456.802 105.229 455.474 105.758Z" fill="#FFCF2D"/>
<path fill-rule="evenodd" clip-rule="evenodd" d="M455.297 105.311C456.986 104.639 458.734 106.146 458.327 107.917L458.327 107.918C457.92 109.671 455.743 110.258 454.504 108.977L454.504 108.977C453.384 107.815 453.814 105.901 455.296 105.311M457.391 107.701C457.624 106.684 456.619 105.82 455.651 106.205L455.651 106.205C454.797 106.545 454.554 107.644 455.195 108.309C455.909 109.047 457.158 108.705 457.391 107.701Z" fill="#FE5244"/>
<path d="M439.754 95.5329C438.537 95.8855 438.073 97.3439 438.841 98.3375C439.722 99.4434 441.466 99.1389 441.915 97.8087C442.379 96.4464 441.114 95.1322 439.754 95.5329Z" fill="#FFCF2D"/>
<path fill-rule="evenodd" clip-rule="evenodd" d="M439.619 95.0715C441.355 94.5612 442.958 96.2346 442.369 97.9633C441.798 99.6569 439.58 100.038 438.465 98.6373C438.464 98.6356 438.463 98.6338 438.461 98.632C437.487 97.3724 438.075 95.5197 439.619 95.0715ZM441.46 97.6535C441.799 96.6584 440.874 95.7042 439.889 95.9943L439.887 95.9949L439.887 95.9949C439 96.252 438.659 97.3133 439.219 98.0406C439.865 98.8485 441.134 98.6201 441.46 97.6551L441.46 97.6535L441.46 97.6535Z" fill="#FE5244"/>
<path d="M437.433 139.927C436.184 140.071 435.48 141.449 436.088 142.555C436.777 143.789 438.554 143.773 439.21 142.523C439.882 141.257 438.858 139.766 437.433 139.927Z" fill="#FFCF2D"/>
<path fill-rule="evenodd" clip-rule="evenodd" d="M439.634 142.748C440.489 141.135 439.181 139.246 437.378 139.449L437.378 139.449L437.377 139.449C435.786 139.633 434.895 141.385 435.667 142.787L435.668 142.789C436.54 144.353 438.798 144.338 439.634 142.748ZM437.486 140.404C438.533 140.287 439.273 141.378 438.785 142.297L438.785 142.297L438.784 142.299C438.307 143.208 437.012 143.225 436.507 142.322C436.063 141.513 436.581 140.509 437.486 140.404Z" fill="#FE5244"/>
<path d="M423.713 173.31C422.465 173.454 421.76 174.832 422.369 175.938C423.057 177.172 424.834 177.156 425.49 175.906C426.163 174.64 425.138 173.15 423.713 173.31Z" fill="#FFCF2D"/>
<path fill-rule="evenodd" clip-rule="evenodd" d="M425.915 176.131C426.771 174.518 425.462 172.629 423.66 172.832L423.66 172.832L423.658 172.832C422.067 173.016 421.177 174.768 421.948 176.17L421.949 176.172C422.822 177.736 425.079 177.721 425.915 176.131ZM423.768 173.787C424.814 173.67 425.554 174.761 425.066 175.68L425.066 175.68L425.065 175.682C424.588 176.591 423.294 176.608 422.789 175.705C422.345 174.896 422.863 173.892 423.768 173.787Z" fill="#FE5244"/>
<path d="M428.323 108.771C427.106 109.124 426.642 110.582 427.41 111.576C428.291 112.682 430.036 112.377 430.484 111.047C430.948 109.701 429.7 108.387 428.323 108.771Z" fill="#FFCF2D"/>
<path fill-rule="evenodd" clip-rule="evenodd" d="M430.939 111.202C431.531 109.484 429.937 107.821 428.195 108.308L428.19 108.309C426.645 108.757 426.057 110.61 427.032 111.87C427.033 111.872 427.034 111.874 427.036 111.875C428.151 113.276 430.368 112.895 430.939 111.202ZM428.455 109.234C429.465 108.953 430.366 109.917 430.031 110.89L430.03 110.893C429.705 111.858 428.435 112.087 427.789 111.279C427.23 110.552 427.57 109.492 428.455 109.234Z" fill="#FE5244"/>
<path d="M441.579 117.746C440.362 118.099 439.898 119.557 440.666 120.551C441.547 121.657 443.292 121.352 443.74 120.022C444.204 118.66 442.956 117.345 441.579 117.746Z" fill="#FFCF2D"/>
<path fill-rule="evenodd" clip-rule="evenodd" d="M441.445 117.284C443.198 116.774 444.783 118.449 444.195 120.176C443.623 121.87 441.406 122.25 440.291 120.85C440.289 120.848 440.288 120.847 440.286 120.845C439.312 119.585 439.9 117.732 441.445 117.284ZM443.285 119.866C443.625 118.869 442.713 117.916 441.713 118.207L441.712 118.208C440.825 118.465 440.484 119.526 441.044 120.253C441.69 121.061 442.96 120.833 443.285 119.868L443.285 119.866L443.285 119.866Z" fill="#FE5244"/>
<path d="M412.877 117.361C413.677 116.383 413.245 114.909 412.028 114.54C410.683 114.124 409.403 115.374 409.803 116.72C410.203 118.098 411.964 118.467 412.877 117.361Z" fill="#FFCF2D"/>
<path fill-rule="evenodd" clip-rule="evenodd" d="M412.168 114.081C413.716 114.551 414.26 116.428 413.247 117.666L413.246 117.667L413.246 117.667C412.086 119.072 409.849 118.601 409.341 116.856C408.831 115.134 410.465 113.554 412.168 114.081ZM411.885 115C410.899 114.694 409.974 115.613 410.262 116.583L410.263 116.586C410.556 117.596 411.839 117.861 412.505 117.056C413.091 116.339 412.771 115.268 411.888 115.001L411.885 115Z" fill="#FE5244"/>
<path d="M473.564 117.409C474.365 116.432 473.932 114.957 472.716 114.589C471.371 114.172 470.09 115.422 470.49 116.768C470.875 118.146 472.652 118.515 473.564 117.409Z" fill="#FFCF2D"/>
<path fill-rule="evenodd" clip-rule="evenodd" d="M472.857 114.129C474.406 114.599 474.95 116.476 473.936 117.714L473.935 117.715L473.935 117.715C472.78 119.115 470.522 118.656 470.03 116.901C469.522 115.181 471.155 113.603 472.857 114.129ZM472.574 115.048C471.589 114.742 470.663 115.661 470.952 116.631C470.952 116.634 470.953 116.636 470.954 116.639C471.232 117.637 472.525 117.914 473.194 117.104C473.78 116.387 473.461 115.316 472.577 115.049L472.574 115.048Z" fill="#FE5244"/>
<path d="M458.163 182.381C458.963 181.403 458.531 179.929 457.314 179.56C455.97 179.143 454.689 180.394 455.089 181.74C455.473 183.102 457.25 183.471 458.163 182.381Z" fill="#FFCF2D"/>
<path fill-rule="evenodd" clip-rule="evenodd" d="M457.456 179.1C459.004 179.571 459.548 181.448 458.535 182.686L458.532 182.69C457.378 184.068 455.122 183.613 454.629 181.874C454.12 180.153 455.754 178.574 457.456 179.1ZM457.173 180.02C456.187 179.714 455.262 180.633 455.55 181.603L455.552 181.609C455.829 182.591 457.123 182.872 457.794 182.074C458.379 181.357 458.059 180.288 457.176 180.02L457.173 180.02Z" fill="#FE5244"/>
<path d="M445.389 80.9482C445.037 80.9642 444.685 80.9803 444.317 80.9963L428.692 81.9579C424.706 82.1983 420.896 83.2721 417.438 85.051L412.636 70.6592L434.039 54.9532L445.389 80.9482Z" fill="#E57281"/>
<path d="M417.374 84.8279C421.825 82.8085 425.379 79.2186 427.396 74.7632L435.176 57.5348L434.039 54.9385L412.636 70.6444L417.374 84.8279Z" fill="#9A3B82"/>
<path d="M435.415 56.3971C435.415 57.8876 434.807 59.2338 433.83 60.2114C432.854 61.189 431.509 61.798 430.02 61.798H425.314C423.457 69.026 416.269 73.9781 408.537 72.6159L404.999 71.9909C401.125 71.3017 398.484 67.6797 399.028 63.7853L403.174 42.999C403.895 38.5596 408.457 35.8512 412.699 37.3737L419.567 40.1302C423.281 41.4123 425.778 44.9061 425.778 48.8326V50.8359L430.02 50.9962C432.998 50.9962 435.415 53.4162 435.415 56.3971Z" fill="#E57281"/>
<path fill-rule="evenodd" clip-rule="evenodd" d="M431.173 54.1054C429.329 54.1054 427.843 55.5928 427.843 57.4389C427.843 57.6602 427.664 57.8396 427.443 57.8396C427.222 57.8396 427.043 57.6602 427.043 57.4389C427.043 55.1502 428.887 53.3041 431.173 53.3041C431.394 53.3041 431.573 53.4835 431.573 53.7047C431.573 53.926 431.394 54.1054 431.173 54.1054Z" fill="#9A3B82"/>
<path fill-rule="evenodd" clip-rule="evenodd" d="M405.079 47.3743C405.079 47.153 405.258 46.9736 405.479 46.9736L405.479 47.3743C405.479 46.9736 405.48 46.9736 405.48 46.9736L405.48 46.9736L405.481 46.9736L405.485 46.9737L405.495 46.9738C405.504 46.9739 405.515 46.9742 405.53 46.9746C405.56 46.9755 405.601 46.9773 405.654 46.9808C405.76 46.9877 405.911 47.0012 406.099 47.028C406.473 47.0814 406.994 47.1876 407.593 47.3991C408.793 47.8227 410.306 48.6696 411.563 50.356C411.695 50.5333 411.659 50.7844 411.482 50.9167C411.305 51.0491 411.054 51.0126 410.922 50.8352C409.777 49.3003 408.409 48.5366 407.327 48.1548C406.786 47.9636 406.317 47.8685 405.986 47.8213C405.82 47.7977 405.69 47.7861 405.602 47.7804C405.559 47.7776 405.526 47.7762 405.505 47.7755C405.495 47.7752 405.487 47.7751 405.483 47.775L405.479 47.775C405.479 47.775 405.478 47.775 405.478 47.775L405.479 47.775" fill="#9A3B82"/>
<path d="M407.714 53.3724C407.883 52.4406 407.668 51.621 407.233 51.5419C406.798 51.4628 406.308 52.154 406.139 53.0859C405.97 54.0177 406.186 54.8372 406.621 54.9163C407.055 54.9955 407.545 54.3042 407.714 53.3724Z" fill="#9A3B82"/>
<path d="M430.021 50.9958C432.999 50.9958 435.416 53.4158 435.416 56.3968C435.416 56.4128 435.416 56.4448 435.416 56.4769C437.817 52.7748 443.708 43.3512 443.708 40.1619C443.708 35.8829 438.377 31.6038 432.855 33.559C433.223 33.2866 433.607 32.9981 434.007 32.6936C436.136 31.0269 437.257 29.7768 437.433 28.8793C437.497 28.5588 437.449 28.2703 437.289 28.0459C436.649 27.1324 435.944 26.7318 435.192 26.86C434.087 27.0363 432.951 28.3985 431.814 30.8986C431.302 32.0365 430.902 33.1584 430.677 33.8475C430.229 31.1711 428.068 22.3085 418.783 23.6707C415.581 24.1355 414.077 25.4657 413.66 26.9241C411.003 24.8406 407.449 23.2059 404.503 24.7605C399.413 27.4369 400.037 31.8282 402.983 34.9373C400.197 34.8892 398.244 35.7066 398.244 38.0625C398.244 40.226 400.469 41.2678 403.527 41.6845C406.585 42.1011 410.507 41.8768 413.9 41.4921C416.318 41.2197 418.495 40.8831 419.888 40.6427C418.959 42.5499 418.591 44.1846 418.671 45.5629C418.815 48.4156 420.88 50.0984 423.794 50.6913C424.418 50.8195 425.09 50.8997 425.779 50.9317L430.021 50.9958ZM435.288 27.501C435.336 27.485 435.384 27.485 435.448 27.485C435.896 27.485 436.328 27.8055 436.761 28.4145C436.793 28.4786 436.841 28.5748 436.809 28.7511C436.553 30.0492 433.271 32.5173 431.366 33.8155C432.118 31.6038 433.703 27.7735 435.288 27.501Z" fill="#FFCF2D"/>
<path d="M385.645 173.759H283.19C280.661 173.759 279.14 170.97 280.485 168.839L294.124 147.395C295.901 144.607 298.959 142.924 302.257 142.924H371.606L385.645 173.759Z" fill="#E57281"/>
<path d="M304.514 142.94L312.678 129.478C313.158 128.676 314.039 128.18 314.967 128.18C317.064 128.18 318.345 130.471 317.257 132.266L310.773 142.94H304.514Z" fill="#FE5244"/>
<path d="M385.645 173.759H362.608C362.56 173.711 362.496 173.647 362.448 173.599C356.845 167.829 354.46 159.079 357.614 150.649L360.895 142.924H371.605L385.645 173.759Z" fill="#9A3B82"/>
<path d="M297.662 159.367H284.823C283.958 159.367 283.158 159.832 282.726 160.585L281.365 162.957C280.452 164.56 281.605 166.563 283.462 166.563H293.787C295.58 166.563 297.245 165.634 298.19 164.095L299.294 162.284C300.063 161.002 299.15 159.367 297.662 159.367Z" fill="#E57281"/>
<path d="M294.349 166.563H281.51C280.646 166.563 279.845 167.028 279.413 167.781L278.052 170.153C277.14 171.755 278.292 173.759 280.149 173.759H290.475C292.268 173.759 293.933 172.829 294.877 171.291L295.982 169.48C296.766 168.198 295.838 166.563 294.349 166.563Z" fill="#E57281"/>
<path d="M301.329 152.075H288.49C287.625 152.075 286.825 152.54 286.393 153.293L285.032 155.665C284.119 157.268 285.272 159.271 287.129 159.271H297.455C299.248 159.271 300.912 158.342 301.857 156.803L302.961 154.992C303.746 153.71 302.817 152.075 301.329 152.075Z" fill="#E57281"/>
<path fill-rule="evenodd" clip-rule="evenodd" d="M282.38 160.385C282.883 159.508 283.816 158.966 284.824 158.966H297.663C299.468 158.966 300.565 160.945 299.639 162.49L299.638 162.491L298.533 164.304L298.532 164.305C297.515 165.962 295.721 166.964 293.789 166.964H283.463C281.298 166.964 279.954 164.628 281.018 162.758L281.019 162.757L282.38 160.385ZM283.074 160.785C283.074 160.785 283.074 160.785 283.074 160.785L281.714 163.155C281.714 163.155 281.714 163.156 281.714 163.156C280.953 164.492 281.914 166.162 283.463 166.162H293.789C295.442 166.162 296.978 165.305 297.85 163.885C297.85 163.885 297.85 163.885 297.85 163.885L298.953 162.078C298.953 162.077 298.953 162.077 298.953 162.076C299.563 161.057 298.835 159.768 297.663 159.768H284.824C284.103 159.768 283.435 160.155 283.074 160.785Z" fill="#9A3B82"/>
<path fill-rule="evenodd" clip-rule="evenodd" d="M279.065 167.581C279.569 166.704 280.501 166.162 281.51 166.162H294.348C296.147 166.162 297.272 168.138 296.323 169.689L295.218 171.499L295.218 171.5C294.2 173.157 292.407 174.159 290.474 174.159H280.149C277.984 174.159 276.64 171.823 277.704 169.954L277.705 169.953L279.065 167.581ZM279.759 167.98C279.759 167.98 279.759 167.98 279.759 167.98L278.399 170.351C278.399 170.351 278.399 170.352 278.399 170.352C277.639 171.688 278.6 173.358 280.149 173.358H290.474C292.128 173.358 293.664 172.501 294.535 171.081C294.536 171.081 294.536 171.081 294.536 171.081L295.64 169.27C296.26 168.257 295.527 166.963 294.348 166.963H281.51C280.789 166.963 280.121 167.351 279.759 167.98Z" fill="#9A3B82"/>
<path fill-rule="evenodd" clip-rule="evenodd" d="M286.045 153.093C286.548 152.216 287.481 151.674 288.489 151.674H301.328C303.127 151.674 304.251 153.65 303.302 155.201L302.198 157.012L302.197 157.012C301.18 158.67 299.386 159.671 297.454 159.671H287.128C284.963 159.671 283.619 157.335 284.684 155.466L284.684 155.465L286.045 153.093ZM286.739 153.492C286.739 153.493 286.739 153.492 286.739 153.492L285.379 155.863C285.379 155.863 285.379 155.864 285.379 155.864C284.618 157.2 285.579 158.87 287.128 158.87H297.454C299.108 158.87 300.643 158.013 301.515 156.593C301.515 156.593 301.515 156.593 301.515 156.593L302.62 154.782C303.239 153.77 302.507 152.476 301.328 152.476H288.489C287.769 152.476 287.1 152.863 286.739 153.492Z" fill="#9A3B82"/>
<path d="M319.915 162.797C316.056 162.797 312.343 161.402 309.429 158.854L304.562 154.591H300.08L298.927 155.825C296.862 158.037 294.317 159.303 291.291 159.303H289.146C288.026 159.303 287.337 158.053 287.946 157.107L293.34 148.645H319.931V162.797H319.915Z" fill="#E57281"/>
<path fill-rule="evenodd" clip-rule="evenodd" d="M293.555 148.308C293.742 148.427 293.796 148.675 293.677 148.861L288.283 157.323L288.282 157.324C287.847 158.001 288.339 158.903 289.146 158.903H291.291C294.192 158.903 296.635 157.709 298.634 155.553L298.635 155.552L299.906 154.191H304.712L309.692 158.553C309.692 158.553 309.692 158.553 309.692 158.553M304.412 154.992L309.165 159.156L309.165 159.156C312.136 161.752 315.959 163.198 319.914 163.198C320.135 163.198 320.314 163.018 320.314 162.797C320.314 162.576 320.135 162.396 319.914 162.396C316.154 162.396 312.517 161.022 309.692 158.553M304.412 154.992H300.253L299.22 156.098C299.22 156.098 299.22 156.098 299.22 156.099C297.089 158.397 294.441 159.704 291.291 159.704H289.146C287.712 159.704 286.828 158.106 287.608 156.891C287.608 156.891 287.609 156.891 287.609 156.891L293.003 148.43C293.122 148.243 293.369 148.189 293.555 148.308" fill="#9A3B82"/>
<path d="M428.004 143.789L403.559 171.13C398.42 176.884 391.072 180.169 383.356 180.169C368.116 180.169 357.567 164.944 362.913 150.648L391.953 82.3435L382.14 76.8464C380.747 75.7566 380.075 73.9777 380.379 72.2468L382.044 61.0123C382.556 58.5121 385.101 56.5569 387.583 55.98L399.077 53.3837C400.053 53.1593 400.95 53.9927 400.79 54.9703L399.125 63.6406C398.468 67.8716 401.318 71.5256 405.544 72.2468C409.002 72.8398 411.435 76.3176 411.115 79.8113L403.287 128.692C403.271 128.724 411.291 141.241 428.004 143.789Z" fill="#E57281"/>
<path fill-rule="evenodd" clip-rule="evenodd" d="M409.319 91.0349C409.538 91.0686 409.688 91.2732 409.654 91.4919L400.209 152.889C400.175 153.108 399.971 153.258 399.752 153.224C399.534 153.191 399.384 152.986 399.418 152.767L408.863 91.3699C408.897 91.1512 409.101 91.0012 409.319 91.0349Z" fill="#9A3B82"/>
<path fill-rule="evenodd" clip-rule="evenodd" d="M389.692 61.4295C389.913 61.4367 390.087 61.6217 390.079 61.8429L389.951 65.8163C389.951 65.8165 389.951 65.8167 389.951 65.8169C389.908 67.2892 390.783 68.5435 391.984 68.8928L406.68 71.8705C406.896 71.9144 407.036 72.1258 406.993 72.3427C406.949 72.5596 406.738 72.6998 406.521 72.6559L391.794 69.6719L391.779 69.6677C390.169 69.2099 389.099 67.5838 389.151 65.7928L389.151 65.7916L389.279 61.8171C389.287 61.5959 389.471 61.4224 389.692 61.4295Z" fill="#9A3B82"/>
<path fill-rule="evenodd" clip-rule="evenodd" d="M398.904 53.3626C399.984 53.1042 400.978 54.0347 400.783 55.1364L399.264 63.8313C398.754 67.5055 401.245 70.9236 404.901 71.5787L416.659 73.1481C416.878 73.1774 417.032 73.3789 417.003 73.5982C416.973 73.8175 416.772 73.9716 416.553 73.9424L404.778 72.3707L404.77 72.3691C400.685 71.6426 397.898 67.8229 398.472 63.7136L398.473 63.7068L399.995 54.9971C400.089 54.4645 399.611 54.017 399.09 54.1421L399.089 54.1424L387.081 56.9474C386.866 56.9976 386.651 56.8637 386.6 56.6482C386.55 56.4327 386.684 56.2173 386.899 56.167L398.903 53.363C398.904 53.3628 398.904 53.3627 398.904 53.3626Z" fill="#9A3B82"/>
<path fill-rule="evenodd" clip-rule="evenodd" d="M442.289 128.629L410.464 164.08L409.75 163.437L441.575 127.986L442.289 128.629Z" fill="#FE5244"/>
<path fill-rule="evenodd" clip-rule="evenodd" d="M391.889 82.3597C391.889 82.1384 392.068 81.959 392.289 81.959H397.908C398.129 81.959 398.308 82.1384 398.308 82.3597C398.308 82.581 398.129 82.7604 397.908 82.7604H392.289C392.068 82.7604 391.889 82.581 391.889 82.3597Z" fill="#9A3B82"/>
<path fill-rule="evenodd" clip-rule="evenodd" d="M394.822 55.1882C395.396 55.579 395.821 56.2214 395.811 57.0269L395.699 65.3906C395.698 66.429 394.955 67.343 393.922 67.343H392.161C390.536 67.343 389.296 65.8677 389.296 64.1697V62.8876C389.296 62.6663 389.475 62.4869 389.696 62.4869C389.917 62.4869 390.096 62.6663 390.096 62.8876V64.1697C390.096 65.5168 391.065 66.5417 392.161 66.5417H393.922C394.425 66.5417 394.899 66.079 394.899 65.3877V65.3851L395.011 57.017C395.011 57.0169 395.011 57.0168 395.011 57.0168C395.017 56.5242 394.762 56.1169 394.372 55.8507C393.975 55.5802 393.465 55.477 393.024 55.5842C392.809 55.6365 392.593 55.5045 392.541 55.2895C392.489 55.0744 392.621 54.8578 392.835 54.8056C393.515 54.6403 394.254 54.8016 394.822 55.1882Z" fill="#9A3B82"/>
<path fill-rule="evenodd" clip-rule="evenodd" d="M395.41 62.4871C395.631 62.4871 395.81 62.6664 395.81 62.8877V64.1698C395.81 65.5169 396.779 66.5418 397.875 66.5418H398.996C399.217 66.5418 399.396 66.7211 399.396 66.9424C399.396 67.1637 399.217 67.3431 398.996 67.3431H397.875C396.25 67.3431 395.01 65.8678 395.01 64.1698V62.8877C395.01 62.6664 395.189 62.4871 395.41 62.4871Z" fill="#9A3B82"/>
<path fill-rule="evenodd" clip-rule="evenodd" d="M519.832 419.919L501.246 265.071L502.2 264.956L520.786 419.804L519.832 419.919Z" fill="#66B0F0"/>
<path fill-rule="evenodd" clip-rule="evenodd" d="M402.105 419.804L420.691 264.956L421.645 265.071L403.059 419.919L402.105 419.804Z" fill="#66B0F0"/>
<path fill-rule="evenodd" clip-rule="evenodd" d="M513.921 367.166H408.953V366.205H513.921V367.166Z" fill="#66B0F0"/>
<path d="M410.458 265.494H511.472C512.816 265.494 513.905 264.405 513.905 263.058V259.757C513.905 258.411 512.816 257.321 511.472 257.321H410.458C409.113 257.321 408.024 258.411 408.024 259.757V263.058C408.024 264.405 409.113 265.494 410.458 265.494Z" fill="white"/>
<path fill-rule="evenodd" clip-rule="evenodd" d="M407.545 259.757C407.545 258.145 408.849 256.84 410.458 256.84H511.472C513.082 256.84 514.386 258.145 514.386 259.757V263.058C514.386 264.67 513.082 265.975 511.472 265.975H410.458C408.849 265.975 407.545 264.67 407.545 263.058V259.757ZM410.458 257.802C409.379 257.802 408.505 258.676 408.505 259.757V263.058C408.505 264.139 409.379 265.014 410.458 265.014H511.472C512.552 265.014 513.425 264.139 513.425 263.058V259.757C513.425 258.676 512.552 257.802 511.472 257.802H410.458Z" fill="#FFCF2D"/>
<path d="M242.368 148.308L226.904 180.169H180.175L198.953 148.308H242.368Z" fill="white"/>
<path fill-rule="evenodd" clip-rule="evenodd" d="M198.725 147.908H243.008L227.155 180.57H179.475L198.725 147.908ZM199.182 148.709L180.876 179.768H226.654L241.729 148.709H199.182Z" fill="#3FB1B5"/>
<path fill-rule="evenodd" clip-rule="evenodd" d="M213.723 154.541C214.079 154.769 214.433 154.995 214.785 155.21C215.356 155.558 216.033 155.668 216.815 155.608C217.601 155.546 218.467 155.314 219.392 155C219.969 154.805 220.549 154.585 221.14 154.362C221.503 154.224 221.871 154.085 222.243 153.95C223.208 153.598 224.188 153.277 225.135 153.107C227.689 152.637 229.523 153.312 230.72 154.123C231.315 154.525 231.747 154.958 232.033 155.291C232.176 155.458 232.282 155.601 232.354 155.704C232.39 155.756 232.417 155.797 232.436 155.827C232.446 155.842 232.453 155.854 232.458 155.862C232.461 155.867 232.463 155.87 232.465 155.873L232.467 155.877L232.468 155.878L232.468 155.878C232.468 155.879 232.468 155.879 232.123 156.081C231.777 156.283 231.777 156.284 231.778 156.284L231.775 156.28C231.774 156.278 231.773 156.276 231.771 156.273C231.768 156.269 231.765 156.264 231.761 156.258C231.748 156.237 231.727 156.205 231.698 156.163C231.639 156.079 231.549 155.957 231.425 155.812C231.176 155.522 230.796 155.141 230.272 154.786C229.232 154.082 227.608 153.467 225.279 153.895L225.278 153.895C224.4 154.053 223.472 154.355 222.517 154.703C222.165 154.831 221.806 154.967 221.446 155.103C220.843 155.331 220.235 155.561 219.648 155.759C218.704 156.079 217.763 156.337 216.877 156.406C215.987 156.476 215.127 156.356 214.369 155.895C213.981 155.658 213.606 155.418 213.238 155.182C212.311 154.589 211.429 154.024 210.486 153.614C209.199 153.055 207.846 152.811 206.232 153.262C204.549 153.732 203.081 154.419 202.032 154.991C201.508 155.276 201.091 155.531 200.805 155.715C200.663 155.806 200.553 155.88 200.48 155.93C200.443 155.955 200.416 155.974 200.398 155.987C200.389 155.993 200.382 155.998 200.378 156.001L200.373 156.004L200.372 156.005C200.372 156.005 200.372 156.005 200.138 155.68C199.903 155.356 199.903 155.356 199.903 155.356L199.904 155.355L199.906 155.354L199.913 155.349C199.918 155.345 199.926 155.339 199.937 155.332C199.958 155.317 199.988 155.296 200.028 155.269C200.107 155.214 200.223 155.136 200.373 155.04C200.672 154.848 201.107 154.582 201.649 154.287C202.734 153.696 204.259 152.981 206.017 152.49C207.846 151.979 209.39 152.264 210.805 152.879C211.811 153.316 212.776 153.934 213.723 154.541Z" fill="#3FB1B5"/>
<path fill-rule="evenodd" clip-rule="evenodd" d="M212.122 159.509C212.479 159.737 212.832 159.963 213.185 160.178C213.756 160.526 214.433 160.636 215.215 160.576C216 160.514 216.867 160.282 217.791 159.968C218.368 159.773 218.949 159.553 219.54 159.33C219.903 159.192 220.27 159.053 220.643 158.918C221.607 158.566 222.588 158.245 223.535 158.075C226.089 157.605 227.923 158.28 229.12 159.091C229.714 159.493 230.147 159.926 230.432 160.259C230.575 160.426 230.682 160.569 230.753 160.672C230.789 160.724 230.817 160.765 230.836 160.795C230.845 160.81 230.853 160.822 230.858 160.83C230.86 160.835 230.863 160.838 230.864 160.841L230.866 160.845L230.867 160.846L230.867 160.846C230.868 160.847 230.868 160.847 230.522 161.049C230.177 161.252 230.177 161.252 230.177 161.252L230.175 161.248C230.174 161.246 230.172 161.244 230.17 161.241C230.168 161.237 230.165 161.232 230.161 161.226C230.148 161.205 230.126 161.173 230.097 161.131C230.039 161.047 229.948 160.925 229.824 160.78C229.576 160.49 229.195 160.109 228.671 159.754C227.631 159.05 226.007 158.435 223.679 158.863L223.677 158.863C222.8 159.021 221.872 159.323 220.916 159.671C220.565 159.799 220.206 159.935 219.845 160.071C219.242 160.299 218.635 160.529 218.048 160.728C217.103 161.047 216.163 161.305 215.277 161.374C214.387 161.444 213.527 161.324 212.769 160.863C212.38 160.626 212.005 160.386 211.637 160.15C210.711 159.557 209.828 158.992 208.885 158.582C207.599 158.023 206.245 157.779 204.632 158.23C202.948 158.7 201.48 159.387 200.431 159.959C199.908 160.244 199.49 160.499 199.205 160.683C199.062 160.774 198.952 160.848 198.879 160.898C198.843 160.923 198.815 160.942 198.797 160.955C198.788 160.962 198.781 160.966 198.777 160.969L198.773 160.973L198.772 160.973C198.772 160.973 198.772 160.973 198.537 160.648C198.303 160.324 198.303 160.324 198.303 160.324L198.304 160.323L198.305 160.322L198.312 160.317C198.318 160.313 198.326 160.307 198.336 160.3C198.357 160.285 198.388 160.264 198.427 160.237C198.507 160.182 198.623 160.104 198.773 160.008C199.072 159.816 199.506 159.551 200.049 159.255C201.133 158.664 202.658 157.949 204.417 157.458C206.245 156.947 207.789 157.232 209.204 157.847C210.21 158.284 211.175 158.902 212.122 159.509Z" fill="#3FB1B5"/>
<path d="M259.946 291.296C259.946 295.575 248.083 299.037 233.227 299.037C218.371 299.037 206.861 295.575 206.861 291.296C206.861 287.017 218.371 283.555 233.227 283.555C248.083 283.555 259.946 287.033 259.946 291.296Z" fill="#FE5244"/>
<path d="M253.11 286.088V341.379L251.429 333.398C249.62 324.808 242.048 318.669 233.275 318.669C230.634 318.669 228.04 319.23 225.687 320.288C225.607 320.32 225.527 320.368 225.431 320.4L219.268 297.899L215.842 285.382C220.532 284.245 226.6 283.555 233.227 283.555C241.103 283.555 248.195 284.533 253.11 286.088Z" fill="#A0505A"/>
<path d="M253.11 286.087V296.504C248.195 298.058 241.103 299.036 233.227 299.036C228.12 299.036 223.35 298.619 219.268 297.914L215.842 285.397C220.532 284.26 226.6 283.57 233.227 283.57C241.103 283.554 248.195 284.532 253.11 286.087Z" fill="#73325A"/>
<path d="M251.924 339.76C252.356 339.888 256.423 341.026 260.025 341.026C261.978 341.026 263.787 340.69 264.811 339.664C265.692 338.783 265.9 337.501 265.436 335.882C265.019 334.439 264.219 333.542 263.05 333.221C260.905 332.645 257.927 334.247 255.574 335.93C259.24 331.475 262.858 325.817 261.513 322.115C261.033 320.801 259.945 319.919 258.584 319.759C257.447 319.631 256.391 320.032 255.894 320.785C253.589 324.295 251.7 338.703 251.62 339.312L251.924 339.76ZM256.567 321.234C256.855 320.801 257.463 320.545 258.168 320.545C258.28 320.545 258.392 320.545 258.504 320.561C259.016 320.625 260.249 320.913 260.777 322.388C261.129 323.365 261.257 325.16 259.833 328.173C258.488 331.026 256.054 334.375 252.597 338.174C253.109 334.52 254.742 324.006 256.567 321.234ZM264.251 339.103C263.194 340.161 260.793 340.481 257.287 340.033C255.446 339.792 253.733 339.408 252.821 339.167C253.509 338.558 254.79 337.452 256.279 336.427C259.128 334.456 261.401 333.606 262.858 334.007C263.739 334.247 264.331 334.936 264.683 336.106C265.067 337.452 264.923 338.43 264.251 339.103Z" fill="#FFCF2D"/>
<path d="M219.429 324.888L215.731 329.039C211.537 333.75 210.848 340.61 214.034 346.059L230.315 374.009C233.5 379.474 239.344 382.823 245.651 382.823H252.391C257.273 382.823 260.907 378.336 259.899 373.56L251.414 333.414C249.605 324.824 242.033 318.686 233.26 318.686C227.994 318.669 222.951 320.929 219.429 324.888Z" fill="white"/>
<path fill-rule="evenodd" clip-rule="evenodd" d="M219.129 324.621C222.727 320.578 227.878 318.269 233.26 318.285C242.221 318.285 249.956 324.555 251.804 333.331M251.805 333.331L260.289 373.477C261.35 378.502 257.526 383.224 252.389 383.224H245.65C239.2 383.224 233.226 379.799 229.968 374.211L213.688 346.261C210.414 340.662 211.122 333.613 215.431 328.772L219.129 324.621M233.258 319.086C228.106 319.07 223.173 321.281 219.727 325.154L219.726 325.154L216.029 329.305C216.029 329.305 216.029 329.305 216.029 329.305C211.95 333.888 211.28 340.558 214.378 345.856L214.379 345.857L230.659 373.807C230.659 373.807 230.659 373.807 230.659 373.807C233.773 379.149 239.485 382.423 245.65 382.423H252.389C257.018 382.423 260.462 378.169 259.506 373.643L251.021 333.497L251.021 333.496C249.251 325.092 241.843 319.086 233.259 319.086L233.258 319.086Z" fill="#3FB1B5"/>
<path d="M232.027 336.972L253.046 377.743C254.039 379.586 255.271 380.772 256.68 381.525C255.464 382.343 253.991 382.839 252.39 382.839H245.65C239.327 382.839 233.484 379.474 230.314 374.025L214.034 346.059C213.377 344.921 212.881 343.735 212.545 342.501C210.239 333.927 219.989 327.195 227.305 332.228C228.969 333.366 230.602 334.904 232.027 336.972Z" fill="#3FB1B5"/>
<path d="M232.074 337.068H212.672C212.768 336.763 212.88 336.475 213.008 336.202H231.45C231.642 336.459 231.834 336.715 232.026 336.988L232.074 337.068Z" fill="white"/>
<path d="M234.924 342.581H212.576C212.576 342.549 212.56 342.517 212.56 342.501C212.496 342.244 212.432 341.972 212.384 341.716H234.492L234.924 342.581Z" fill="white"/>
<path d="M237.774 348.11H215.234L214.722 347.229H237.326L237.774 348.11Z" fill="white"/>
<path d="M240.624 353.639H218.452L217.939 352.758H240.175L240.624 353.639Z" fill="white"/>
<path d="M243.472 359.152H221.669L221.156 358.287H243.024L243.472 359.152Z" fill="white"/>
<path d="M246.322 364.681H224.886L224.374 363.8H245.858L246.322 364.681Z" fill="white"/>
<path d="M249.171 370.21H228.104L227.592 369.329H248.707L249.171 370.21Z" fill="white"/>
<path d="M252.005 375.724H231.45C231.242 375.435 231.034 375.147 230.842 374.858H251.557L252.005 375.724Z" fill="white"/>
<path d="M256.215 381.253H238.35C237.774 380.996 237.213 380.708 236.669 380.387H255.063C255.431 380.708 255.815 380.996 256.215 381.253Z" fill="white"/>
<path d="M194.375 290.159C194.231 294.39 182.24 297.819 167.48 297.819C152.72 297.819 140.73 294.406 140.586 290.159V256.84H194.375V290.159Z" fill="#73325A"/>
<path d="M190.804 295.688L190.724 299.646L189.955 338.286V337.164C189.955 327.244 181.919 319.199 172.01 319.199H170.921C165.863 319.199 161.3 321.17 157.922 324.343L155.569 308.413L154.112 298.557C158.05 299.214 162.613 299.582 167.463 299.582C177.453 299.566 186.145 297.996 190.804 295.688Z" fill="#A0505A"/>
<path d="M190.802 295.688L190.722 299.646C184.767 303.877 166.373 309.086 155.584 308.397L154.127 298.54C158.065 299.181 162.627 299.566 167.478 299.566C177.451 299.566 186.144 297.996 190.802 295.688Z" fill="#73325A"/>
<path d="M172.828 383.352H175.806C183.618 383.352 189.957 377.006 189.957 369.185V337.164C189.957 327.244 181.921 319.198 172.012 319.198H170.923C159.397 319.198 150.512 329.375 152.065 340.818L155.827 368.512C156.996 377.006 164.248 383.352 172.828 383.352Z" fill="white"/>
<path fill-rule="evenodd" clip-rule="evenodd" d="M151.669 340.872C150.083 329.189 159.155 318.798 170.923 318.798H172.012C182.142 318.798 190.358 327.022 190.358 337.164V369.185C190.358 377.227 183.839 383.753 175.806 383.753H172.828C164.047 383.753 156.627 377.259 155.431 368.567L151.669 340.872ZM152.462 340.764L156.224 368.457C157.365 376.753 164.448 382.952 172.828 382.952H175.806C183.397 382.952 189.557 376.785 189.557 369.185V337.164C189.557 327.465 181.7 319.599 172.012 319.599H170.923C159.639 319.599 150.942 329.562 152.462 340.764Z" fill="#3FB1B5"/>
<path d="M185.508 379.49C182.979 381.878 179.553 383.352 175.807 383.352H172.83C164.249 383.352 156.997 377.006 155.845 368.512L152.083 340.818C152.019 340.289 151.954 339.76 151.938 339.247C152.899 333.109 158.198 328.414 164.601 328.414C167.755 328.414 170.668 329.568 172.926 331.491C175.183 333.414 176.768 336.122 177.264 339.247L182.211 373.047C182.579 375.563 183.764 377.807 185.508 379.49Z" fill="#3FB1B5"/>
<path d="M175.773 334.969H153.409C153.569 334.664 153.761 334.376 153.953 334.103H175.245C175.437 334.376 175.613 334.664 175.773 334.969Z" fill="white"/>
<path d="M177.439 340.482H152.033C152.001 340.193 151.969 339.905 151.953 339.616H177.311L177.439 340.482Z" fill="white"/>
<path d="M178.255 346.011H152.785L152.657 345.146H178.127L178.255 346.011Z" fill="white"/>
<path d="M179.055 351.54H153.537L153.409 350.659H178.927L179.055 351.54Z" fill="white"/>
<path d="M179.871 357.053H154.289L154.161 356.188H179.743L179.871 357.053Z" fill="white"/>
<path d="M180.672 362.583H155.026L154.914 361.717H180.544L180.672 362.583Z" fill="white"/>
<path d="M181.488 368.111H155.778L155.666 367.23H181.36L181.488 368.111Z" fill="white"/>
<path d="M182.304 373.624H157.363C157.219 373.336 157.091 373.047 156.979 372.759H182.16L182.208 373.047C182.24 373.24 182.272 373.432 182.304 373.624Z" fill="white"/>
<path d="M185.169 379.154H161.589C161.268 378.881 160.948 378.577 160.66 378.288H184.433C184.657 378.593 184.913 378.881 185.169 379.154Z" fill="white"/>
<path d="M206.013 116.976V143.965C204.845 140.904 195.592 141.336 185.41 145.199C176.686 148.516 170.138 153.068 169.178 156.225V118.242C169.178 106.944 175.213 96.847 184.482 91.3339C196.52 93.4333 206.013 103.931 206.013 116.976Z" fill="#FFCF2D"/>
<path d="M168.473 92.5519C160.277 98.2574 155.058 107.729 155.058 118.242V149.574H109.481L115.773 122.457C118.446 110.902 126.803 101.687 137.688 97.7605L168.473 92.5519Z" fill="#FFCF2D"/>
<path d="M260.65 226.661V289.565C260.65 285.286 248.083 281.824 233.227 281.824C218.371 281.824 206.333 285.286 206.333 289.565V259.419C206.333 258.009 205.18 256.855 203.772 256.855H122.064C97.4911 256.855 79.3214 233.953 84.8763 209.994L104.599 124.925C107.737 111.351 118.718 101.014 132.438 98.6738L137.688 97.7763C126.803 101.703 118.446 110.918 115.773 122.473L109.481 149.59H155.058V118.242C155.058 107.729 160.293 98.2411 168.473 92.5517L175.677 91.3337C177.166 91.0773 178.622 90.9651 180.079 90.9651C180.271 90.9651 180.447 90.9651 180.639 90.9651C180.815 90.9651 180.992 90.9811 181.152 90.9811C181.184 90.9811 181.216 90.9811 181.248 90.9811C181.376 90.9811 181.52 90.9971 181.648 90.9971C181.664 90.9971 181.696 90.9971 181.712 90.9971C181.792 90.9971 181.872 91.0132 181.936 91.0132C182.08 91.0292 182.208 91.0292 182.352 91.0452C182.512 91.0612 182.688 91.0773 182.849 91.0933C183.009 91.1093 183.153 91.1254 183.313 91.1414C183.345 91.1414 183.377 91.1574 183.425 91.1574C183.585 91.1734 183.761 91.2055 183.921 91.2215C183.937 91.2215 183.953 91.2215 183.953 91.2215C184.129 91.2536 184.305 91.2696 184.481 91.3016C175.213 96.8148 169.177 106.911 169.177 118.21V195.217H229.273C246.595 195.249 260.65 209.305 260.65 226.661Z" fill="#FE5244"/>
<path fill-rule="evenodd" clip-rule="evenodd" d="M169.907 91.5721C170.059 91.7901 170.005 92.0897 169.787 92.2413C161.698 97.8717 155.521 107.911 155.521 118.242V150.055H108.86L115.288 122.349M169.907 91.5721C169.756 91.3541 169.457 91.3002 169.239 91.4518L169.907 91.5721ZM169.239 91.4518C160.935 97.2322 154.561 107.547 154.561 118.242L169.239 91.4518ZM154.561 118.242V149.093V118.242ZM154.561 149.093H110.07H154.561Z" fill="white"/>
<path fill-rule="evenodd" clip-rule="evenodd" d="M215.544 225.012C215.747 225.183 215.773 225.486 215.601 225.689C209.928 232.413 206.814 240.942 206.814 249.755C206.814 250.021 206.599 250.236 206.334 250.236C206.069 250.236 205.854 250.021 205.854 249.755C205.854 240.715 209.047 231.967 214.868 225.069C215.039 224.866 215.342 224.84 215.544 225.012Z" fill="white"/>
<path d="M139.753 246.566C139.673 246.566 139.593 246.55 139.529 246.502L137.416 245.348C137.176 245.22 137.096 244.931 137.224 244.691C137.352 244.451 137.64 244.371 137.88 244.499L139.993 245.653C140.234 245.781 140.314 246.069 140.186 246.31C140.09 246.47 139.929 246.566 139.753 246.566ZM141.866 246.021C141.69 246.021 141.53 245.925 141.45 245.765C141.322 245.524 141.402 245.236 141.642 245.108L143.755 243.954C143.996 243.826 144.284 243.922 144.412 244.146C144.54 244.387 144.46 244.675 144.22 244.803L142.107 245.957C142.027 245.989 141.947 246.021 141.866 246.021ZM135.527 244.274C135.447 244.274 135.367 244.258 135.303 244.21L133.19 243.056C132.95 242.928 132.87 242.64 132.998 242.399C133.126 242.159 133.414 242.079 133.654 242.207L135.767 243.361C136.007 243.489 136.087 243.778 135.959 244.018C135.863 244.178 135.703 244.274 135.527 244.274ZM146.077 243.713C145.901 243.713 145.741 243.617 145.66 243.457C145.532 243.217 145.612 242.928 145.853 242.8L147.966 241.646C148.334 241.454 148.67 241.229 149.006 240.989C149.214 240.829 149.519 240.877 149.679 241.085C149.839 241.293 149.791 241.598 149.583 241.758C149.214 242.031 148.83 242.271 148.43 242.495L146.317 243.649C146.237 243.697 146.157 243.713 146.077 243.713ZM131.349 241.902C131.253 241.902 131.157 241.87 131.061 241.806C130.388 241.309 129.764 240.733 129.236 240.075C129.06 239.867 129.092 239.563 129.3 239.402C129.508 239.226 129.812 239.258 129.972 239.466C130.452 240.059 131.013 240.572 131.621 241.021C131.829 241.181 131.877 241.486 131.733 241.694C131.653 241.838 131.509 241.902 131.349 241.902ZM151.023 240.22C150.911 240.22 150.815 240.188 150.719 240.107C150.511 239.947 150.479 239.643 150.655 239.434C151.135 238.841 151.536 238.2 151.856 237.495C151.968 237.255 152.256 237.143 152.496 237.255C152.736 237.367 152.848 237.655 152.736 237.896C152.384 238.665 151.936 239.386 151.408 240.027C151.296 240.156 151.167 240.22 151.023 240.22ZM128.339 238.232C128.163 238.232 127.987 238.136 127.907 237.96C127.555 237.191 127.299 236.389 127.139 235.556C127.091 235.3 127.267 235.043 127.523 234.995C127.779 234.947 128.035 235.123 128.083 235.38C128.227 236.133 128.451 236.854 128.771 237.543C128.884 237.784 128.771 238.072 128.531 238.184C128.467 238.216 128.403 238.232 128.339 238.232ZM153.008 235.892C152.976 235.892 152.944 235.892 152.928 235.892C152.672 235.844 152.496 235.588 152.544 235.332C152.64 234.803 152.688 234.274 152.688 233.745V233.024C152.688 232.751 152.896 232.543 153.169 232.543C153.441 232.543 153.649 232.751 153.649 233.024V233.745C153.649 234.338 153.601 234.931 153.489 235.508C153.441 235.732 153.233 235.892 153.008 235.892ZM127.459 233.553C127.187 233.553 126.979 233.344 126.979 233.072V230.668C126.979 230.395 127.187 230.187 127.459 230.187C127.731 230.187 127.939 230.395 127.939 230.668V233.072C127.939 233.328 127.715 233.553 127.459 233.553ZM153.152 231.101C152.88 231.101 152.672 230.892 152.672 230.62V228.216C152.672 227.943 152.88 227.735 153.152 227.735C153.425 227.735 153.633 227.943 153.633 228.216V230.62C153.633 230.892 153.425 231.101 153.152 231.101ZM127.459 228.745C127.187 228.745 126.979 228.536 126.979 228.264V225.86C126.979 225.587 127.187 225.379 127.459 225.379C127.731 225.379 127.939 225.587 127.939 225.86V228.264C127.939 228.52 127.715 228.745 127.459 228.745ZM153.152 226.293C152.88 226.293 152.672 226.084 152.672 225.812V223.408C152.672 223.135 152.88 222.927 153.152 222.927C153.425 222.927 153.633 223.135 153.633 223.408V225.812C153.633 226.084 153.425 226.293 153.152 226.293ZM127.459 223.937C127.187 223.937 126.979 223.728 126.979 223.456V221.052C126.979 220.78 127.187 220.571 127.459 220.571C127.731 220.571 127.939 220.78 127.939 221.052V223.456C127.939 223.712 127.715 223.937 127.459 223.937ZM153.152 221.485C152.88 221.485 152.672 221.276 152.672 221.004V218.6C152.672 218.327 152.88 218.119 153.152 218.119C153.425 218.119 153.633 218.327 153.633 218.6V221.004C153.633 221.276 153.425 221.485 153.152 221.485ZM127.459 219.129C127.187 219.129 126.979 218.92 126.979 218.648V216.581H128.275C128.547 216.581 128.755 216.789 128.755 217.061C128.755 217.334 128.547 217.542 128.275 217.542H127.939V218.648C127.939 218.904 127.715 219.129 127.459 219.129ZM152.288 217.542H149.887C149.615 217.542 149.407 217.334 149.407 217.061C149.407 216.789 149.615 216.581 149.887 216.581H152.288C152.56 216.581 152.768 216.789 152.768 217.061C152.768 217.334 152.56 217.542 152.288 217.542ZM147.485 217.542H145.084C144.812 217.542 144.604 217.334 144.604 217.061C144.604 216.789 144.812 216.581 145.084 216.581H147.485C147.758 216.581 147.966 216.789 147.966 217.061C147.966 217.334 147.758 217.542 147.485 217.542ZM142.683 217.542H140.282C140.009 217.542 139.801 217.334 139.801 217.061C139.801 216.789 140.009 216.581 140.282 216.581H142.683C142.955 216.581 143.163 216.789 143.163 217.061C143.163 217.334 142.955 217.542 142.683 217.542ZM137.88 217.542H135.479C135.207 217.542 134.999 217.334 134.999 217.061C134.999 216.789 135.207 216.581 135.479 216.581H137.88C138.152 216.581 138.361 216.789 138.361 217.061C138.361 217.334 138.152 217.542 137.88 217.542ZM133.078 217.542H130.677C130.404 217.542 130.196 217.334 130.196 217.061C130.196 216.789 130.404 216.581 130.677 216.581H133.078C133.35 216.581 133.558 216.789 133.558 217.061C133.558 217.334 133.35 217.542 133.078 217.542Z" fill="white"/>
<path d="M94.4499 243.906C94.2738 243.906 94.1137 243.81 94.0336 243.649C93.9056 243.409 93.9856 243.12 94.2257 242.992L96.1788 241.918C96.2268 241.886 96.2748 241.87 96.3228 241.838C96.547 241.71 96.8511 241.79 96.9792 242.015C97.1073 242.239 97.0272 242.543 96.8031 242.672C96.7551 242.704 96.7071 242.736 96.643 242.752L94.69 243.826C94.6099 243.89 94.5299 243.906 94.4499 243.906ZM98.5 241.341C98.372 241.341 98.2439 241.293 98.1478 241.181C97.9717 240.989 97.9878 240.684 98.1799 240.508C98.7402 239.995 99.2364 239.402 99.6686 238.777C99.8127 238.553 100.117 238.505 100.341 238.649C100.565 238.793 100.613 239.098 100.469 239.322C100.005 240.011 99.4445 240.652 98.8362 241.229C98.7241 241.309 98.6121 241.341 98.5 241.341ZM101.173 237.399C101.109 237.399 101.061 237.383 100.997 237.367C100.757 237.271 100.629 236.998 100.725 236.742C100.997 236.021 101.189 235.283 101.302 234.53C101.334 234.274 101.574 234.081 101.846 234.114C102.102 234.146 102.294 234.386 102.262 234.658C102.15 235.492 101.942 236.309 101.638 237.094C101.542 237.287 101.366 237.399 101.173 237.399ZM101.862 232.687C101.59 232.687 101.382 232.479 101.382 232.206V229.802C101.382 229.53 101.59 229.322 101.862 229.322C102.134 229.322 102.342 229.53 102.342 229.802V232.206C102.342 232.463 102.134 232.687 101.862 232.687ZM101.862 227.879C101.59 227.879 101.382 227.671 101.382 227.398V224.994C101.382 224.722 101.59 224.514 101.862 224.514C102.134 224.514 102.342 224.722 102.342 224.994V227.398C102.342 227.655 102.134 227.879 101.862 227.879ZM101.862 223.071C101.59 223.071 101.382 222.863 101.382 222.59V220.187C101.382 219.914 101.59 219.706 101.862 219.706C102.134 219.706 102.342 219.914 102.342 220.187V222.59C102.342 222.847 102.134 223.071 101.862 223.071ZM101.862 218.263C101.59 218.263 101.382 218.055 101.382 217.783V217.542H100.181C99.9088 217.542 99.7007 217.334 99.7007 217.061C99.7007 216.789 99.9088 216.581 100.181 216.581H102.342V217.783C102.342 218.039 102.134 218.263 101.862 218.263ZM97.7796 217.542H95.3784C95.1062 217.542 94.8981 217.334 94.8981 217.061C94.8981 216.789 95.1062 216.581 95.3784 216.581H97.7796C98.0518 216.581 98.2599 216.789 98.2599 217.061C98.2599 217.334 98.0358 217.542 97.7796 217.542ZM92.9771 217.542H90.5758C90.3036 217.542 90.0955 217.334 90.0955 217.061C90.0955 216.789 90.3036 216.581 90.5758 216.581H92.9771C93.2492 216.581 93.4573 216.789 93.4573 217.061C93.4573 217.334 93.2332 217.542 92.9771 217.542ZM88.1745 217.542H85.7732C85.5011 217.542 85.293 217.334 85.293 217.061C85.293 216.789 85.5011 216.581 85.7732 216.581H88.1745C88.4467 216.581 88.6548 216.789 88.6548 217.061C88.6548 217.334 88.4306 217.542 88.1745 217.542Z" fill="white"/>
<path d="M206.012 143.967C207.181 147.028 199.785 152.461 189.62 156.323C179.454 160.185 170.345 160.778 169.177 157.701C168.008 154.624 175.228 149.079 185.409 145.217C195.591 141.354 204.844 140.89 206.012 143.967Z" fill="#FE5244"/>
<path d="M211.695 243.393V245.092C211.166 244.964 210.606 244.9 210.046 244.9H207.981C204.923 244.9 202.314 242.945 201.321 240.22L207.18 239.435C209.566 239.114 211.695 240.973 211.695 243.393Z" fill="#73325A"/>
<path d="M217.107 251.968V265.013C217.107 268.058 214.641 270.526 211.6 270.526H205.469C203.948 270.526 202.571 269.917 201.578 268.908C200.586 267.914 199.962 266.536 199.962 265.013H203.948C205.26 265.013 206.317 263.955 206.317 262.641V259.228C206.317 257.913 205.26 256.856 203.948 256.856H183.569C175.613 256.856 169.161 250.397 169.161 242.432V156.241C170.122 153.084 176.669 148.517 185.394 145.215C191.349 142.956 197 141.866 200.89 141.962V237.832C200.89 241.743 204.06 244.916 207.966 244.916H210.031C213.937 244.9 217.107 248.057 217.107 251.968Z" fill="#A0505A"/>
<path d="M200.89 141.946V150.664C197.993 152.619 194.07 154.623 189.604 156.306C179.423 160.168 170.33 160.761 169.161 157.684V156.225C170.122 153.068 176.669 148.501 185.394 145.199C191.365 142.939 197 141.85 200.89 141.946Z" fill="#73325A"/>
<path d="M174.268 77.022L168.249 92.5517L137.225 98.1129L145.325 77.022H174.268Z" fill="#A0505A"/>
<path d="M174.269 77.022L171.019 85.4199L140.251 90.2278L145.326 77.022H174.269Z" fill="#73325A"/>
<path d="M192.454 45.4181C192.454 47.5176 188.82 49.8415 184.626 51.7967C178.911 54.4731 172.171 56.5085 172.171 56.5085L167.625 65.0826C173.804 68.3681 176.221 74.2658 177.182 78.3846C177.79 81.013 177.79 82.8881 177.79 82.8881H134.215C134.215 82.8881 122.769 45.7707 150.351 36.8921C167.224 31.4591 192.454 40.4339 192.454 45.4181Z" fill="white"/>
<path fill-rule="evenodd" clip-rule="evenodd" d="M177.609 37.7139C169.237 35.5378 158.813 34.6722 150.498 37.3496C143.715 39.5329 139.353 43.4413 136.606 48.07C133.853 52.71 132.709 58.0988 132.419 63.2465C132.128 68.3922 132.692 73.2699 133.33 76.8655C133.649 78.6621 133.986 80.1355 134.242 81.1585C134.371 81.6699 134.479 82.0686 134.555 82.3385C134.562 82.3624 134.568 82.3853 134.574 82.4071H177.292C177.281 82.2127 177.264 81.9636 177.236 81.6675C177.161 80.8876 177.012 79.7832 176.714 78.4933C175.767 74.4356 173.402 68.6985 167.399 65.5071L166.975 65.2816L171.84 56.1059L172.032 56.048L172.079 56.2036C172.032 56.048 172.032 56.048 172.032 56.048L172.032 56.048L172.033 56.0477L172.051 56.0424C172.063 56.0385 172.082 56.0328 172.107 56.0251C172.157 56.0097 172.232 55.9868 172.329 55.9565C172.523 55.8961 172.807 55.8066 173.166 55.6908C173.884 55.4593 174.901 55.1225 176.096 54.7024C178.488 53.8616 181.585 52.6896 184.422 51.361L184.423 51.3607C186.508 50.3887 188.429 49.3358 189.822 48.2783C190.519 47.7494 191.066 47.232 191.436 46.7374C191.806 46.2412 191.973 45.8019 191.973 45.418C191.973 44.9917 191.694 44.4244 191 43.7405C190.32 43.0708 189.309 42.357 188.015 41.6397C185.431 40.2069 181.79 38.8005 177.609 37.7139ZM177.79 82.8879L178.27 82.8879L178.27 83.3687H133.86L133.756 83.0297L134.215 82.8879C133.756 83.0297 133.756 83.0294 133.755 83.029L133.753 83.0216L133.747 83.0001C133.741 82.9813 133.733 82.9536 133.722 82.9174C133.701 82.845 133.67 82.7383 133.63 82.5993C133.552 82.3211 133.442 81.9137 133.311 81.3929C133.049 80.3513 132.708 78.8556 132.384 77.0337C131.738 73.3923 131.164 68.4358 131.46 63.1923C131.756 57.9509 132.922 52.3956 135.78 47.5789C138.645 42.751 143.196 38.6902 150.204 36.4342C158.762 33.6786 169.389 34.584 177.85 36.7831C182.086 37.8841 185.807 39.3164 188.48 40.7984C189.815 41.5385 190.908 42.3012 191.673 43.055C192.425 43.7948 192.934 44.5983 192.934 45.418C192.934 46.0838 192.646 46.7223 192.205 47.3134C191.762 47.9061 191.139 48.4855 190.403 49.0444C188.93 50.1625 186.937 51.2492 184.828 52.2324C181.95 53.5801 178.82 54.7639 176.414 55.6097C175.21 56.033 174.185 56.3724 173.46 56.6061C173.098 56.7229 172.811 56.8134 172.614 56.8747C172.573 56.8877 172.535 56.8993 172.502 56.9096L168.271 64.8888C174.315 68.3076 176.696 74.1889 177.649 78.2752L177.649 78.2759C177.959 79.6142 178.114 80.7614 178.192 81.5761C178.231 81.9836 178.25 82.3084 178.26 82.5328C178.265 82.645 178.267 82.7322 178.269 82.7921C178.269 82.822 178.27 82.8452 178.27 82.8612C178.27 82.8693 178.27 82.8755 178.27 82.88L178.27 82.887V82.8877C178.27 82.8878 178.27 82.8879 177.79 82.8879Z" fill="#FFCF2D"/>
<path d="M146.316 42.1807C152.302 42.1807 157.154 37.323 157.154 31.3308C157.154 25.3385 152.302 20.4808 146.316 20.4808C140.331 20.4808 135.479 25.3385 135.479 31.3308C135.479 37.323 140.331 42.1807 146.316 42.1807Z" fill="white"/>
<path fill-rule="evenodd" clip-rule="evenodd" d="M146.317 20.9616C140.597 20.9616 135.96 25.604 135.96 31.3307C135.96 37.0574 140.597 41.6999 146.317 41.6999C152.037 41.6999 156.675 37.0574 156.675 31.3307C156.675 25.604 152.037 20.9616 146.317 20.9616ZM134.999 31.3307C134.999 25.0729 140.066 20 146.317 20C152.568 20 157.635 25.0729 157.635 31.3307C157.635 37.5885 152.568 42.6615 146.317 42.6615C140.066 42.6615 134.999 37.5885 134.999 31.3307Z" fill="#FFCF2D"/>
<path d="M177.165 78.3833C176.269 74.4889 174.028 68.9437 168.505 65.5942H167.08C165.767 65.5942 164.567 65.0653 163.702 64.1999C162.838 63.3344 162.31 62.1325 162.31 60.8183C162.31 58.1739 164.439 56.0424 167.08 56.0424L173.115 56.1706H173.275C173.387 56.1386 173.5 56.0905 173.628 56.0584C175.26 55.7058 180.431 54.4558 184.721 52.3082L185.218 55.2731L186.819 64.7768C187.907 71.2996 183.441 77.3095 177.165 78.3833Z" fill="#A0505A"/>
<path d="M185.202 55.2584C179.951 57.3899 173.1 56.1558 173.1 56.1558C173.1 56.1558 179.551 54.8737 184.706 52.2935L185.202 55.2584Z" fill="#73325A"/>
<path fill-rule="evenodd" clip-rule="evenodd" d="M167.096 58.4317C167.096 58.2104 167.275 58.031 167.496 58.031C169.542 58.031 171.194 59.6848 171.194 61.7331C171.194 61.9544 171.015 62.1338 170.794 62.1338C170.573 62.1338 170.393 61.9544 170.393 61.7331C170.393 60.1274 169.1 58.8323 167.496 58.8323C167.275 58.8323 167.096 58.6529 167.096 58.4317Z" fill="#73325A"/>
<path fill-rule="evenodd" clip-rule="evenodd" d="M205.857 419.918L187.271 265.07L188.225 264.956L206.811 419.804L205.857 419.918Z" fill="#66B0F0"/>
<path fill-rule="evenodd" clip-rule="evenodd" d="M88.1309 419.803L106.701 264.956L107.654 265.07L89.0845 419.918L88.1309 419.803Z" fill="#66B0F0"/>
<path fill-rule="evenodd" clip-rule="evenodd" d="M199.946 367.166H94.9785V366.204H199.946V367.166Z" fill="#66B0F0"/>
<path d="M91.0241 265.013H203.9C205.245 265.013 206.334 263.923 206.334 262.577V259.276C206.334 257.929 205.245 256.84 203.9 256.84H91.0241C89.6794 256.84 88.5908 257.929 88.5908 259.276V262.577C88.6068 263.923 89.6954 265.013 91.0241 265.013Z" fill="white"/>
<path fill-rule="evenodd" clip-rule="evenodd" d="M88.1104 259.276C88.1104 257.664 89.4139 256.359 91.0239 256.359H203.9C205.51 256.359 206.814 257.664 206.814 259.276V262.577C206.814 264.189 205.51 265.494 203.9 265.494H91.0239C89.4268 265.494 88.1295 264.187 88.1104 262.583L88.1104 262.58V259.276ZM91.0239 257.32C89.9444 257.32 89.0709 258.195 89.0709 259.276V262.574C89.0852 263.661 89.9644 264.532 91.0239 264.532H203.9C204.98 264.532 205.853 263.658 205.853 262.577V259.276C205.853 258.195 204.98 257.32 203.9 257.32H91.0239Z" fill="#FFCF2D"/>
</svg>
